<svg width="32" height="33" viewBox="0 0 32 33" fill="none" xmlns="http://www.w3.org/2000/svg">
<path d="M6.66675 16.4544C6.66675 11.2998 10.8454 7.12109 16.0001 7.12109C21.1547 7.12109 25.3334 11.2998 25.3334 16.4544V22.2322C25.3334 24.3007 25.3334 25.335 25.0503 26.1688C24.5174 27.7388 23.2845 28.9718 21.7145 29.5047C20.8806 29.7878 19.8463 29.7878 17.7778 29.7878H14.2223C12.1538 29.7878 11.1195 29.7878 10.2857 29.5047C8.71565 28.9718 7.48276 27.7388 6.94979 26.1688C6.66675 25.335 6.66675 24.3007 6.66675 22.2322V16.4544Z" stroke="#122E50" stroke-width="1.5" stroke-linejoin="round"/>
<path d="M6.66675 23.1211C8.86669 20.6811 12.2304 19.1211 16.0001 19.1211C19.7698 19.1211 23.1334 20.6811 25.3334 23.1211" stroke="#122E50" stroke-width="1.5" stroke-linejoin="round"/>
<path d="M14.6667 13.7891H17.3334" stroke="#122E50" stroke-width="1.5" stroke-linecap="round"/>
<path d="M12 8.45443V7.12109C12 5.87859 12 5.25733 12.203 4.76727C12.4736 4.11387 12.9928 3.59473 13.6461 3.32408C14.1363 3.12109 14.7575 3.12109 16 3.12109C17.2425 3.12109 17.8637 3.12109 18.3539 3.32408C19.0072 3.59473 19.5264 4.11387 19.7971 4.76727C20 5.25733 20 5.87859 20 7.12109V8.45443" stroke="#122E50" stroke-width="1.5"/>
<path d="M6.66675 25.7891H4.95247C3.69009 25.7891 2.66675 24.7657 2.66675 23.5033V21.7891C2.66675 19.5799 4.45761 17.7891 6.66675 17.7891" stroke="#122E50" stroke-width="1.5"/>
<path d="M25.3333 25.7891H27.0475C28.3099 25.7891 29.3333 24.7657 29.3333 23.5033V21.7891C29.3333 19.5799 27.5425 17.7891 25.3333 17.7891" stroke="#122E50" stroke-width="1.5"/>
</svg>
