<svg width="32" height="33" viewBox="0 0 32 33" fill="none" xmlns="http://www.w3.org/2000/svg">
<path d="M21.7444 6.29968C20.9564 6.29968 20.5622 6.29968 20.2033 6.16649C20.1534 6.14799 20.1044 6.12764 20.056 6.10547C19.708 5.94583 19.4294 5.66721 18.8721 5.10999C17.5896 3.82745 16.9484 3.18619 16.1593 3.12705C16.0533 3.11911 15.9466 3.11911 15.8406 3.12705C15.0516 3.18619 14.4102 3.82745 13.1278 5.10997C12.5705 5.66721 12.2919 5.94583 11.9439 6.10547C11.8956 6.12764 11.8464 6.14799 11.7966 6.16649C11.4376 6.29968 11.0436 6.29968 10.2556 6.29968H10.1102C8.09967 6.29968 7.0944 6.29968 6.46981 6.92428C5.84521 7.54887 5.84521 8.55413 5.84521 10.5647V10.71C5.84521 11.4981 5.84521 11.8921 5.71203 12.2511C5.69352 12.3009 5.67317 12.3501 5.651 12.3984C5.49136 12.7464 5.21275 13.025 4.65551 13.5822C3.37299 14.8647 2.73172 15.506 2.67259 16.2951C2.66464 16.4011 2.66464 16.5078 2.67259 16.6138C2.73172 17.4028 3.37299 18.044 4.65551 19.3266C5.21275 19.8839 5.49136 20.1624 5.651 20.5104C5.67317 20.5588 5.69352 20.6079 5.71203 20.6578C5.84521 21.0167 5.84521 21.4108 5.84521 22.1988V22.3442C5.84521 24.3547 5.84521 25.36 6.46981 25.9846C7.0944 26.6092 8.09967 26.6092 10.1102 26.6092H10.2556C11.0436 26.6092 11.4376 26.6092 11.7966 26.7423C11.8464 26.7608 11.8956 26.7812 11.9439 26.8034C12.2919 26.9631 12.5705 27.2416 13.1278 27.7988C14.4102 29.0814 15.0516 29.7227 15.8406 29.7818C15.9466 29.7898 16.0533 29.7898 16.1593 29.7818C16.9484 29.7227 17.5896 29.0814 18.8721 27.7988C19.4294 27.2416 19.708 26.9631 20.056 26.8034C20.1044 26.7812 20.1534 26.7608 20.2033 26.7423C20.5622 26.6092 20.9564 26.6092 21.7444 26.6092H21.8897C23.9002 26.6092 24.9056 26.6092 25.5301 25.9846C26.1548 25.36 26.1548 24.3547 26.1548 22.3442V22.1988C26.1548 21.4108 26.1548 21.0167 26.2878 20.6578C26.3064 20.6079 26.3268 20.5588 26.3489 20.5104C26.5086 20.1624 26.7872 19.8839 27.3444 19.3266C28.6269 18.044 29.2682 17.4028 29.3273 16.6138C29.3353 16.5078 29.3353 16.4011 29.3273 16.2951C29.2682 15.506 28.6269 14.8647 27.3444 13.5822C26.7872 13.025 26.5086 12.7464 26.3489 12.3984C26.3268 12.3501 26.3064 12.3009 26.2878 12.2511C26.1548 11.8921 26.1548 11.4981 26.1548 10.71V10.5647C26.1548 8.55413 26.1548 7.54887 25.5301 6.92428C24.9056 6.29968 23.9002 6.29968 21.8897 6.29968H21.7444Z" stroke="#122E50" stroke-width="1.5"/>
<path d="M11.3334 22.4544C12.2649 20.8441 14.0059 19.7607 16 19.7607C17.9942 19.7607 19.7352 20.8441 20.6667 22.4544M18.6667 13.7877C18.6667 15.2605 17.4728 16.4544 16 16.4544C14.5274 16.4544 13.3334 15.2605 13.3334 13.7877C13.3334 12.315 14.5274 11.1211 16 11.1211C17.4728 11.1211 18.6667 12.315 18.6667 13.7877Z" stroke="#122E50" stroke-width="1.5" stroke-linecap="round"/>
</svg>
