<svg width="32" height="33" viewBox="0 0 32 33" fill="none" xmlns="http://www.w3.org/2000/svg">
<path d="M24 3.12109V5.78776M8 3.12109V5.78776" stroke="#122E50" stroke-width="1.5" stroke-linecap="round" stroke-linejoin="round"/>
<path d="M4 11.1211H28" stroke="#122E50" stroke-width="1.5" stroke-linecap="round" stroke-linejoin="round"/>
<path d="M3.33325 16.7793C3.33325 10.9697 3.33325 8.06478 5.00275 6.25993C6.67224 4.45508 9.35924 4.45508 14.7333 4.45508H17.2666C22.6406 4.45508 25.3277 4.45508 26.9971 6.25993C28.6666 8.06478 28.6666 10.9697 28.6666 16.7793V17.4641C28.6666 23.2739 28.6666 26.1787 26.9971 27.9836C25.3277 29.7884 22.6406 29.7884 17.2666 29.7884H14.7333C9.35924 29.7884 6.67224 29.7884 5.00275 27.9836C3.33325 26.1787 3.33325 23.2739 3.33325 17.4641V16.7793Z" stroke="#122E50" stroke-width="1.5" stroke-linecap="round" stroke-linejoin="round"/>
<path d="M20 20.4544H12M20 20.4544C20 21.388 17.3409 23.1324 16.6667 23.7878M20 20.4544C20 19.5208 17.3409 17.7764 16.6667 17.1211" stroke="#122E50" stroke-width="1.5" stroke-linecap="round" stroke-linejoin="round"/>
</svg>
