<svg width="32" height="33" viewBox="0 0 32 33" fill="none" xmlns="http://www.w3.org/2000/svg">
<path d="M15.3333 29.7884H12.829C9.69853 29.7884 8.13329 29.7884 7.04745 28.8477C5.96161 27.9069 5.69567 26.3205 5.16377 23.1476L3.55903 13.5748C3.31639 12.1275 3.19508 11.4038 3.58356 10.9294C3.97205 10.4551 4.68607 10.4551 6.11411 10.4551H25.8858C27.3138 10.4551 28.0278 10.4551 28.4163 10.9294C28.8047 11.4038 28.6834 12.1275 28.4409 13.5748L28.0698 15.7884" stroke="#122E50" stroke-width="1.5" stroke-linecap="round"/>
<path d="M18.1892 19.7101C19.7982 18.7355 21.2025 19.1283 22.0461 19.754C22.3921 20.0105 22.565 20.1388 22.6668 20.1388C22.7685 20.1388 22.9414 20.0105 23.2874 19.754C24.131 19.1283 25.5353 18.7355 27.1444 19.7101C29.256 20.9895 29.7337 25.2099 24.863 28.7704C23.9353 29.4487 23.4714 29.7877 22.6668 29.7877C21.8621 29.7877 21.3982 29.4487 20.4705 28.7704C15.5998 25.2099 16.0776 20.9895 18.1892 19.7101Z" stroke="#122E50" stroke-width="1.5" stroke-linecap="round"/>
<path d="M23.3334 10.4544C23.3334 6.40433 20.0502 3.12109 16.0001 3.12109C11.95 3.12109 8.66675 6.40433 8.66675 10.4544" stroke="#122E50" stroke-width="1.5"/>
</svg>
