<svg width="32" height="33" viewBox="0 0 32 33" fill="none" xmlns="http://www.w3.org/2000/svg">
<path d="M14.6753 28.4557H12.8072C8.02691 28.4557 5.63675 28.4557 4.15168 26.9425C2.66663 25.4292 2.66663 22.9936 2.66663 18.1224C2.66663 13.2512 2.66663 10.8156 4.15168 9.30234C5.63675 7.78906 8.02691 7.78906 12.8072 7.78906H17.8776C22.6578 7.78906 25.0481 7.78906 26.5332 9.30234C27.6757 10.4666 27.9392 12.1769 28 15.1224" stroke="#122E50" stroke-width="1.5" stroke-linecap="round"/>
<path d="M26.6889 27.1522L29.333 29.7878M28.0704 23.8231C28.0704 21.2263 25.9652 19.1211 23.3684 19.1211C20.7714 19.1211 18.6664 21.2263 18.6664 23.8231C18.6664 26.42 20.7714 28.5252 23.3684 28.5252C25.9652 28.5252 28.0704 26.42 28.0704 23.8231Z" stroke="#122E50" stroke-width="1.5" stroke-linecap="round" stroke-linejoin="round"/>
<path d="M21.3331 7.78776L21.2005 7.37568C20.5405 5.32228 20.2105 4.29559 19.4248 3.70833C18.6392 3.12109 17.5956 3.12109 15.5084 3.12109H15.1576C13.0704 3.12109 12.0268 3.12109 11.2412 3.70833C10.4555 4.29559 10.1255 5.32228 9.46546 7.37568L9.33301 7.78776" stroke="#122E50" stroke-width="1.5"/>
</svg>
