<svg width="28" height="28" viewBox="0 0 28 28" fill="none" xmlns="http://www.w3.org/2000/svg">
<rect x="0.5" y="0.5" width="27" height="27" rx="13.5" fill="#FEFEFF"/>
<rect x="0.5" y="0.5" width="27" height="27" rx="13.5" stroke="#64696C"/>
<g clip-path="url(#clip0_426_26223)">
<path d="M12.1563 21.5375H8.40625C8.15761 21.5375 7.91915 21.4387 7.74334 21.2629C7.56752 21.0871 7.46875 20.8486 7.46875 20.6V8.41251C7.46875 8.16387 7.56752 7.92541 7.74334 7.74959C7.91915 7.57378 8.15761 7.47501 8.40625 7.47501H15.05C15.2986 7.47522 15.5369 7.57414 15.7125 7.75001L19.3813 11.4188C19.4773 11.5161 19.5515 11.6328 19.5989 11.761C19.6463 11.8892 19.6659 12.0261 19.6563 12.1625" stroke="black" stroke-width="1.5" stroke-linecap="round" stroke-linejoin="round"/>
<path d="M14.9688 7.47501V11.225C14.9688 11.4736 15.0675 11.7121 15.2433 11.8879C15.4192 12.0637 15.6576 12.1625 15.9062 12.1625H19.6562" stroke="black" stroke-width="1.5" stroke-linecap="round" stroke-linejoin="round"/>
<path d="M12.1063 13.0125L10.75 14.7875C10.7088 14.8408 10.6569 14.885 10.5978 14.9173C10.5386 14.9496 10.4734 14.9692 10.4062 14.975C10.3396 14.9785 10.2729 14.9681 10.2105 14.9444C10.1481 14.9207 10.0913 14.8843 10.0437 14.8375L9.34375 14.1125" stroke="black" stroke-width="1.5" stroke-linecap="round" stroke-linejoin="round"/>
<path d="M12.1063 17.2313L10.75 19.0063C10.7088 19.0596 10.6569 19.1038 10.5978 19.136C10.5386 19.1683 10.4734 19.188 10.4062 19.1938C10.3396 19.1972 10.2729 19.1868 10.2105 19.1631C10.1481 19.1395 10.0913 19.1031 10.0437 19.0563L9.34375 18.3313" stroke="black" stroke-width="1.5" stroke-linecap="round" stroke-linejoin="round"/>
<path d="M14.0312 14.975H16.375" stroke="black" stroke-width="1.5" stroke-linecap="round" stroke-linejoin="round"/>
<path d="M21.1437 16.3L16.375 21.0688L14.0312 21.5375L14.5 19.1938L19.2687 14.425C19.3914 14.301 19.5374 14.2026 19.6983 14.1355C19.8592 14.0683 20.0319 14.0337 20.2062 14.0337C20.3806 14.0337 20.5533 14.0683 20.7142 14.1355C20.8751 14.2026 21.0211 14.301 21.1437 14.425C21.2677 14.5476 21.3661 14.6936 21.4333 14.8546C21.5005 15.0155 21.535 15.1881 21.535 15.3625C21.535 15.5369 21.5005 15.7095 21.4333 15.8704C21.3661 16.0314 21.2677 16.1774 21.1437 16.3Z" stroke="black" stroke-width="1.5" stroke-linecap="round" stroke-linejoin="round"/>
</g>
<defs>
<clipPath id="clip0_426_26223">
<rect width="15" height="15" fill="white" transform="translate(7 7)"/>
</clipPath>
</defs>
</svg>
