<svg width="30" height="30" viewBox="0 0 30 30" fill="none" xmlns="http://www.w3.org/2000/svg">
<rect width="30" height="30" rx="15" fill="#2867B2"/>
<path d="M15.3948 21.3341C16.0539 21.3341 16.6972 21.2373 17.3246 21.0436C17.952 20.8499 18.5446 20.5658 19.1023 20.1913L16.5926 17.6344C16.3898 17.6085 16.1902 17.586 15.9937 17.5666C15.7972 17.5472 15.5976 17.5375 15.3948 17.5375C14.6469 17.5375 13.9181 17.6441 13.2083 17.8571C12.4985 18.0702 11.814 18.3561 11.1548 18.7149C10.9901 18.8044 10.8982 18.9449 10.8792 19.1366C10.8601 19.3283 10.9204 19.4881 11.0598 19.6158C11.6809 20.1286 12.359 20.5432 13.0942 20.8596C13.8294 21.176 14.5962 21.3341 15.3948 21.3341ZM21.7071 22.8257L19.9009 21.0048C19.2544 21.4956 18.5478 21.8668 17.7809 22.1186C17.0141 22.3705 16.2187 22.4964 15.3948 22.4964C14.3427 22.4964 13.3541 22.293 12.4287 21.8862C11.5034 21.4794 10.6985 20.9274 10.0141 20.23C9.3296 19.5327 8.78773 18.7127 8.38846 17.77C7.98918 16.8273 7.78954 15.82 7.78954 14.7482C7.78954 13.9217 7.91313 13.1211 8.1603 12.3462C8.40747 11.5714 8.77189 10.8483 9.25355 10.1768L7.16211 8.02663C7.04803 7.91041 6.99416 7.77159 7.0005 7.61017C7.00684 7.44875 7.06705 7.30993 7.18112 7.1937C7.2952 7.07748 7.43147 7.01937 7.58991 7.01937C7.74835 7.01937 7.88461 7.07748 7.99869 7.1937L22.5247 22.0121C22.6388 22.1283 22.6958 22.2639 22.6958 22.4189C22.6958 22.5739 22.6388 22.7094 22.5247 22.8257C22.4106 22.9419 22.2743 23 22.1159 23C21.9575 23 21.8212 22.9419 21.7071 22.8257ZM21.4029 18.8935C21.3015 18.8935 21.2065 18.8773 21.1177 18.845C21.029 18.8128 20.9466 18.7579 20.8705 18.6804L17.3151 15.0581C17.239 14.9806 17.201 14.887 17.201 14.7772C17.201 14.6675 17.239 14.5674 17.3151 14.477C17.5306 14.2317 17.6985 13.954 17.8189 13.6441C17.9394 13.3341 17.9996 13.0113 17.9996 12.6755C17.9996 11.9395 17.7461 11.3131 17.239 10.7966C16.732 10.2801 16.1173 10.0218 15.3948 10.0218C15.0652 10.0218 14.7483 10.0831 14.4441 10.2058C14.1399 10.3285 13.8674 10.4996 13.6265 10.7191C13.5378 10.7966 13.4396 10.8354 13.3318 10.8354C13.2241 10.8354 13.1322 10.7966 13.0562 10.7191L11.5351 9.16949C11.4591 9.09201 11.4052 9.00807 11.3735 8.91768C11.3418 8.82728 11.326 8.73043 11.326 8.62712C11.326 8.49798 11.3545 8.37853 11.4115 8.26877C11.4686 8.159 11.5541 8.07183 11.6682 8.00726C12.2386 7.67151 12.8375 7.41969 13.4649 7.25182C14.0924 7.08394 14.7357 7 15.3948 7C16.4468 7 17.4355 7.20339 18.3608 7.61017C19.2861 8.01695 20.091 8.56901 20.7755 9.26634C21.4599 9.96368 22.0018 10.7837 22.4011 11.7264C22.8004 12.6691 23 13.6763 23 14.7482C23 15.4197 22.9144 16.0751 22.7433 16.7143C22.5722 17.3535 22.3282 17.9637 22.0113 18.5448C21.948 18.661 21.8624 18.7482 21.7546 18.8063C21.6469 18.8644 21.5297 18.8935 21.4029 18.8935Z" fill="white"/>
</svg>
