<svg width="32" height="33" viewBox="0 0 32 33" fill="none" xmlns="http://www.w3.org/2000/svg">
<path d="M8.66671 12.4551H7.33337M14 12.4551H12.6667M8.66671 8.45508H7.33337M14 8.45508H12.6667" stroke="#122E50" stroke-width="1.5" stroke-linecap="round"/>
<path d="M24.6667 20.4544H23.3334M24.6667 15.1211H23.3334" stroke="#122E50" stroke-width="1.5" stroke-linecap="round"/>
<path d="M18.6666 11.1211V29.7878H24C26.5141 29.7878 27.7712 29.7878 28.5522 29.0067C29.3333 28.2256 29.3333 26.9686 29.3333 24.4544V16.4544C29.3333 13.9403 29.3333 12.6832 28.5522 11.9021C27.7712 11.1211 26.5141 11.1211 24 11.1211H18.6666ZM18.6666 11.1211C18.6666 7.34985 18.6666 5.46424 17.495 4.29267C16.3234 3.12109 14.4378 3.12109 10.6666 3.12109C6.89539 3.12109 5.00977 3.12109 3.8382 4.29267C2.66663 5.46424 2.66663 7.34985 2.66663 11.1211V13.7878" stroke="#122E50" stroke-width="1.5" stroke-linecap="round" stroke-linejoin="round"/>
<path d="M10.6998 19.063C10.6998 20.5347 9.50588 21.7276 8.03316 21.7276C6.56046 21.7276 5.36658 20.5347 5.36658 19.063C5.36658 17.5914 6.56046 16.3984 8.03316 16.3984C9.50588 16.3984 10.6998 17.5914 10.6998 19.063Z" stroke="#122E50" stroke-width="1.5" stroke-linecap="round"/>
<path d="M2.75976 27.4008C4.17089 25.23 6.41181 24.4164 8.03321 24.418C9.65462 24.4197 11.8299 25.23 13.241 27.4008C13.3322 27.5412 13.3573 27.714 13.275 27.8598C12.945 28.4446 11.9204 29.605 11.1803 29.6837C10.3299 29.7741 8.10552 29.7868 8.03493 29.7872C7.96429 29.7868 5.6712 29.7741 4.82046 29.6837C4.08038 29.605 3.05573 28.4446 2.72572 27.8598C2.64338 27.714 2.66852 27.5412 2.75976 27.4008Z" stroke="#122E50" stroke-width="1.5" stroke-linecap="round"/>
</svg>
