<svg width="32" height="33" viewBox="0 0 32 33" fill="none" xmlns="http://www.w3.org/2000/svg">
<path d="M14.6753 29.1217H12.8072C8.02691 29.1217 5.63675 29.1217 4.15168 27.6084C2.66663 26.0952 2.66663 23.6596 2.66663 18.7884C2.66663 13.9172 2.66663 11.4816 4.15168 9.96836C5.63675 8.45508 8.02691 8.45508 12.8072 8.45508H17.8776C22.6578 8.45508 25.0481 8.45508 26.5332 9.96836C27.6757 11.1327 27.9392 12.8429 28 15.7884V17.7884" stroke="#122E50" stroke-width="1.5" stroke-linecap="round"/>
<path d="M25.3334 25.1211H21.3334M21.3334 29.1211C19.1242 29.1211 17.3334 27.3303 17.3334 25.1211C17.3334 22.9119 19.1242 21.1211 21.3334 21.1211M25.3334 29.1211C27.5426 29.1211 29.3334 27.3303 29.3334 25.1211C29.3334 22.9119 27.5426 21.1211 25.3334 21.1211" stroke="#122E50" stroke-width="1.5" stroke-linecap="round"/>
<path d="M21.3331 8.45573L21.2005 8.04365C20.5405 5.99025 20.2105 4.96356 19.4248 4.3763C18.6392 3.78906 17.5956 3.78906 15.5084 3.78906H15.1576C13.0704 3.78906 12.0268 3.78906 11.2412 4.3763C10.4555 4.96356 10.1255 5.99025 9.46546 8.04365L9.33301 8.45573" stroke="#122E50" stroke-width="1.5"/>
</svg>
