<svg width="32" height="33" viewBox="0 0 32 33" fill="none" xmlns="http://www.w3.org/2000/svg">
<path d="M22.6666 9.78776V15.1211C22.6666 18.803 19.6818 21.7878 15.9999 21.7878C12.318 21.7878 9.33325 18.803 9.33325 15.1211V9.78776C9.33325 6.10587 12.318 3.12109 15.9999 3.12109C19.6818 3.12109 22.6666 6.10587 22.6666 9.78776Z" stroke="#122E50" stroke-width="1.5"/>
<path d="M22.6667 9.78906H18.6667M22.6667 15.1224H18.6667" stroke="#122E50" stroke-width="1.5" stroke-linecap="round"/>
<path d="M26.6666 15.1211C26.6666 21.0122 21.891 25.7878 15.9999 25.7878M15.9999 25.7878C10.1089 25.7878 5.33325 21.0122 5.33325 15.1211M15.9999 25.7878V29.7878M15.9999 29.7878H19.9999M15.9999 29.7878H11.9999" stroke="#122E50" stroke-width="1.5" stroke-linecap="round"/>
</svg>
