<svg width="32" height="33" viewBox="0 0 32 33" fill="none" xmlns="http://www.w3.org/2000/svg">
<path d="M8.11921 20.4557C7.61467 19.3216 7.33337 18.0598 7.33337 16.7302C7.33337 11.7922 11.2136 7.78906 16 7.78906C20.7866 7.78906 24.6667 11.7922 24.6667 16.7302C24.6667 18.0598 24.3854 19.3216 23.8808 20.4557" stroke="#122E50" stroke-width="1.5" stroke-linecap="round"/>
<path d="M16 3.12109V4.45443" stroke="#122E50" stroke-width="1.5" stroke-linecap="round" stroke-linejoin="round"/>
<path d="M29.3333 16.4551H28" stroke="#122E50" stroke-width="1.5" stroke-linecap="round" stroke-linejoin="round"/>
<path d="M3.99996 16.4551H2.66663" stroke="#122E50" stroke-width="1.5" stroke-linecap="round" stroke-linejoin="round"/>
<path d="M25.4272 7.02539L24.4844 7.9682" stroke="#122E50" stroke-width="1.5" stroke-linecap="round" stroke-linejoin="round"/>
<path d="M7.51569 7.97016L6.57288 7.02734" stroke="#122E50" stroke-width="1.5" stroke-linecap="round" stroke-linejoin="round"/>
<path d="M19.356 26.1963C20.7032 25.7606 21.2435 24.5275 21.3955 23.2872C21.4408 22.9167 21.136 22.6094 20.7627 22.6094L11.3025 22.6096C10.9164 22.6096 10.6063 22.9374 10.6524 23.3207C10.8012 24.5586 11.177 25.4628 12.6046 26.1963M19.356 26.1963C19.356 26.1963 12.8397 26.1963 12.6046 26.1963M19.356 26.1963C19.194 28.7896 18.4451 29.8167 16.0091 29.7879C13.4035 29.836 12.8041 28.5666 12.6046 26.1963" stroke="#122E50" stroke-width="1.5" stroke-linecap="round" stroke-linejoin="round"/>
</svg>
