<svg width="32" height="33" viewBox="0 0 32 33" fill="none" xmlns="http://www.w3.org/2000/svg">
<path d="M27.0758 20.896C22.3813 25.5906 14.8449 25.6651 10.1504 20.9707C5.45598 16.2762 5.53074 8.73986 10.2252 4.0454M27.0758 20.896C29.3117 18.6602 27.352 13.0755 22.6989 8.42237C18.0457 3.7692 12.461 1.80956 10.2252 4.0454M27.0758 20.896C24.84 23.1319 19.2553 21.1723 14.6022 16.5191M10.2252 4.0454C7.98936 6.28124 9.949 11.8659 14.6022 16.5191M14.6022 16.5191L18.6668 12.4544" stroke="#122E50" stroke-width="1.5" stroke-linecap="round" stroke-linejoin="round"/>
<path d="M8.65072 20.4551L6.33475 23.7729C4.46974 26.4448 3.53722 27.7807 4.22719 28.7845C4.91716 29.7884 6.76786 29.7884 10.4692 29.7884H16.1975C19.8988 29.7884 21.7495 29.7884 22.4395 28.7845C23.068 27.87 22.35 26.6799 20.8071 24.4551" stroke="#122E50" stroke-width="1.5" stroke-linecap="round" stroke-linejoin="round"/>
</svg>
