<svg width="32" height="33" viewBox="0 0 32 33" fill="none" xmlns="http://www.w3.org/2000/svg">
<path d="M12.1791 3.78906C8.62411 3.87006 6.54764 4.20848 5.12889 5.6223C3.8872 6.85969 3.47212 8.59914 3.33337 11.3891M19.8209 3.78906C23.376 3.87006 25.4524 4.20848 26.8712 5.6223C28.1129 6.85969 28.528 8.59914 28.6667 11.3891M19.8209 29.1224C23.376 29.0413 25.4524 28.7029 26.8712 27.2892C28.1129 26.0517 28.528 24.3123 28.6667 21.5224M12.1791 29.1224C8.62411 29.0413 6.54764 28.7029 5.12889 27.2892C3.8872 26.0517 3.47212 24.3123 3.33337 21.5224" stroke="#122E50" stroke-width="1.5" stroke-linecap="round" stroke-linejoin="round"/>
<path d="M10 23.1224C13.1089 19.8661 18.8577 19.7128 22 23.1224M19.3268 13.1224C19.3268 14.9633 17.8322 16.4557 15.9888 16.4557C14.1452 16.4557 12.6506 14.9633 12.6506 13.1224C12.6506 11.2814 14.1452 9.78906 15.9888 9.78906C17.8322 9.78906 19.3268 11.2814 19.3268 13.1224Z" stroke="#122E50" stroke-width="1.5" stroke-linecap="round"/>
</svg>
