<svg width="31" height="30" viewBox="0 0 31 30" fill="none" xmlns="http://www.w3.org/2000/svg">
<circle cx="15.5" cy="15" r="15" fill="#BAF7D3"/>
<rect width="18" height="18" transform="translate(6.50195 6)" fill="white" fill-opacity="0.01"/>
<path fill-rule="evenodd" clip-rule="evenodd" d="M19.6948 11.937C19.2851 11.521 18.6194 11.521 18.2098 11.937L14.4298 15.7904L12.7942 14.123C12.5893 13.9142 12.3209 13.8098 12.0525 13.8098C11.7825 13.8098 11.5141 13.9142 11.3092 14.123C10.8995 14.5406 10.8995 15.2193 11.3092 15.6368L13.6879 18.0618C13.8866 18.2627 14.1488 18.375 14.4296 18.375C14.7104 18.375 14.9742 18.2627 15.1729 18.0618L19.6946 13.4507C20.1044 13.0347 20.1044 12.3545 19.6948 11.937Z" fill="#0E7C3A"/>
</svg>
