<svg width="31" height="30" viewBox="0 0 31 30" fill="none" xmlns="http://www.w3.org/2000/svg">
<circle cx="15.5" cy="15" r="15" fill="#FFE6C0"/>
<mask id="mask0_93_8170" style="mask-type:alpha" maskUnits="userSpaceOnUse" x="6" y="6" width="19" height="18">
<rect x="6.5" y="6" width="18" height="18" fill="#D9D9D9"/>
</mask>
<g mask="url(#mask0_93_8170)">
<path d="M15.5 18.7502C15.7125 18.7502 15.8906 18.6784 16.0344 18.5346C16.1781 18.3909 16.25 18.2127 16.25 18.0002C16.25 17.7877 16.1781 17.6096 16.0344 17.4659C15.8906 17.3221 15.7125 17.2502 15.5 17.2502C15.2875 17.2502 15.1094 17.3221 14.9656 17.4659C14.8219 17.6096 14.75 17.7877 14.75 18.0002C14.75 18.2127 14.8219 18.3909 14.9656 18.5346C15.1094 18.6784 15.2875 18.7502 15.5 18.7502ZM14.75 15.7502H16.25V11.2502H14.75V15.7502ZM15.5 22.5002C14.4625 22.5002 13.4875 22.3034 12.575 21.9096C11.6625 21.5159 10.8688 20.9815 10.1937 20.3065C9.51875 19.6315 8.98438 18.8377 8.59063 17.9252C8.19687 17.0127 8 16.0377 8 15.0002C8 13.9627 8.19687 12.9877 8.59063 12.0752C8.98438 11.1627 9.51875 10.369 10.1937 9.69399C10.8688 9.01899 11.6625 8.48462 12.575 8.09087C13.4875 7.69712 14.4625 7.50024 15.5 7.50024C16.5375 7.50024 17.5125 7.69712 18.425 8.09087C19.3375 8.48462 20.1313 9.01899 20.8063 9.69399C21.4813 10.369 22.0156 11.1627 22.4094 12.0752C22.8031 12.9877 23 13.9627 23 15.0002C23 16.0377 22.8031 17.0127 22.4094 17.9252C22.0156 18.8377 21.4813 19.6315 20.8063 20.3065C20.1313 20.9815 19.3375 21.5159 18.425 21.9096C17.5125 22.3034 16.5375 22.5002 15.5 22.5002Z" fill="#ED8F03"/>
</g>
</svg>
