<svg width="32" height="33" viewBox="0 0 32 33" fill="none" xmlns="http://www.w3.org/2000/svg">
<path d="M3.33329 23.121L2.74397 19.8226C1.89969 11.9697 8.07492 5.12109 16 5.12109C23.925 5.12109 30.1002 11.9697 29.256 19.8226L28.6666 23.121" stroke="#122E50" stroke-width="1.5" stroke-linecap="round" stroke-linejoin="round"/>
<path d="M10.6876 14.4544C10.4172 10.1812 12.7975 5.12109 16 5.12109" stroke="#122E50" stroke-width="1.5" stroke-linecap="round" stroke-linejoin="round"/>
<path d="M21.3333 14.4544C21.6037 10.1812 19.2234 5.12109 16.0209 5.12109" stroke="#122E50" stroke-width="1.5" stroke-linecap="round" stroke-linejoin="round"/>
<path d="M16 4.45443V3.12109" stroke="#122E50" stroke-width="1.5" stroke-linecap="round" stroke-linejoin="round"/>
<path d="M3.33337 23.1343C14 19.3121 18 19.8209 28.6667 23.1343C28.2982 24.6296 28.0976 28.8545 26.468 29.6507C25.6867 30.0324 24.5663 29.5203 23.7614 29.328C19.9003 28.4057 17.9698 27.9445 16 27.9445C14.0303 27.9445 12.0998 28.4057 8.23876 29.328C7.43384 29.5203 6.3134 30.0324 5.53209 29.6507C3.90249 28.8545 3.70193 24.6296 3.33337 23.1343Z" stroke="#122E50" stroke-width="1.5" stroke-linecap="round" stroke-linejoin="round"/>
</svg>
