<?xml version="1.0" encoding="UTF-8"?>
<svg version="1.1" xmlns="http://www.w3.org/2000/svg" width="482" height="204">
<path d="M0 0 C4.43845735 3.47357532 7.06412616 7.75304139 9 13 C9.25 16 9.25 16 9 18 C6.36 18 3.72 18 1 18 C0.5875 16.7625 0.175 15.525 -0.25 14.25 C-1.86467167 9.95937013 -3.78800657 7.40347169 -7.69921875 4.921875 C-13.05303962 2.77671078 -20.7694035 2.82471131 -26.1796875 4.79296875 C-28.81695397 6.50522384 -30.25564325 8.38346488 -32 11 C-32.42737035 13.14280359 -32.42737035 13.14280359 -32.4375 15.4375 C-32.47746094 16.19933594 -32.51742188 16.96117188 -32.55859375 17.74609375 C-31.72496435 21.10975921 -29.80098567 22.05432134 -27 24 C-24.16545912 25.07945254 -24.16545912 25.07945254 -21.10546875 25.74609375 C-19.98462891 26.02646484 -18.86378906 26.30683594 -17.70898438 26.59570312 C-15.37329649 27.15404005 -13.03736109 27.7113426 -10.70117188 28.26757812 C-2.67198153 30.27832665 3.6568231 32.57324368 9.5 38.5625 C12.00566565 44.30465044 12.33320937 50.49394303 10.08203125 56.4140625 C6.88870712 61.93262265 2.8653618 65.03324578 -3.20703125 67.08203125 C-12.57494355 69.34923969 -24.20318912 69.31725405 -33 65 C-38.27680943 61.68945416 -41.24728888 58.08293858 -43 52 C-43.21230894 48.97942283 -43.18495741 46.02097101 -43 43 C-40.69 43 -38.38 43 -36 43 C-35.84144531 43.66386719 -35.68289063 44.32773438 -35.51953125 45.01171875 C-34.03868594 50.61602281 -32.77921978 54.35868969 -28 58 C-22.44218165 61.1758962 -14.93983003 61.65501592 -8.75 60.3125 C-3.97840564 58.64244197 -0.24413204 57.0555225 2.4375 52.625 C3.14250612 49.33497146 2.96124885 47.22704971 2 44 C-3.26317726 36.63155184 -15.66082547 35.44582391 -23.95507812 33.51367188 C-30.13581713 31.93969486 -34.81577906 29.96062722 -39 25 C-41.62016717 20.38733956 -41.63352679 16.20899805 -41 11 C-39.32818419 5.70441046 -36.78788032 1.93801747 -32 -1 C-21.94134974 -6.1207674 -9.76096653 -5.67065675 0 0 Z " fill="#089E8B" transform="translate(471,70)"/>
<path d="M0 0 C2.45056568 1.71539597 3.92988486 3.22037006 5.5 5.75 C6.386875 4.96625 7.27375 4.1825 8.1875 3.375 C13.26997514 -1.11648966 18.26948123 -1.64631226 24.84375 -1.49609375 C28.3968842 -1.16690632 30.61592418 -0.36029938 33.5 1.75 C37.12275131 6.35187329 38.63230227 10.00090102 38.61352539 15.78417969 C38.61341209 16.95494049 38.61341209 16.95494049 38.61329651 18.14935303 C38.60813522 18.98178528 38.60297394 19.81421753 38.59765625 20.671875 C38.5962413 21.53186096 38.59482635 22.39184692 38.59336853 23.27789307 C38.58778097 26.01863109 38.57523075 28.75928676 38.5625 31.5 C38.55748339 33.3606759 38.55292077 35.22135309 38.54882812 37.08203125 C38.53781561 41.63805246 38.52055951 46.19401228 38.5 50.75 C36.19 50.75 33.88 50.75 31.5 50.75 C31.470271 49.12372681 31.470271 49.12372681 31.43994141 47.46459961 C31.36351235 43.41831366 31.2748542 39.37236993 31.18261719 35.32641602 C31.14448087 33.57974027 31.10960198 31.83299009 31.078125 30.08618164 C31.03213913 27.56629954 30.97420253 25.0469231 30.9140625 22.52734375 C30.90251129 21.75414291 30.89096008 20.98094208 30.87905884 20.18431091 C30.74994017 15.37403525 30.00956712 11.32372355 28.5 6.75 C23.56406832 5.10468944 18.48831598 4.95467361 13.6875 6.875 C10.56797459 9.54887893 8.83924615 12.56007749 8.2015686 16.67645264 C8.05965831 18.85835974 8.00674955 21.02451742 7.98828125 23.2109375 C7.97033005 24.00150543 7.95237885 24.79207336 7.93388367 25.6065979 C7.88003294 28.11267891 7.84596719 30.61857227 7.8125 33.125 C7.77930452 34.83205722 7.74481281 36.53908976 7.70898438 38.24609375 C7.62432148 42.41392653 7.55739093 46.5817061 7.5 50.75 C5.19 50.75 2.88 50.75 0.5 50.75 C0.48541748 49.69611084 0.47083496 48.64222168 0.45581055 47.55639648 C0.39755055 43.62181787 0.32032096 39.68779507 0.23754883 35.75366211 C0.20442917 34.05551214 0.17635739 32.35725552 0.15356445 30.65893555 C0.11977831 28.20836213 0.06745361 25.75875469 0.01171875 23.30859375 C0.00532883 22.55726669 -0.0010611 21.80593964 -0.00764465 21.03184509 C-0.14781302 15.9317634 -1.07852583 12.26977563 -3.5 7.75 C-7.22579089 5.26613941 -9.08711402 5.3695788 -13.5 5.75 C-17.18773373 7.42624261 -19.35783496 9.32253594 -21.5 12.75 C-22.72318866 16.41956597 -22.73116124 19.87321003 -22.81640625 23.69921875 C-22.83718735 24.47183548 -22.85796844 25.24445221 -22.87937927 26.04048157 C-22.94471038 28.5060648 -23.00368315 30.97175361 -23.0625 33.4375 C-23.10570087 35.11003691 -23.14931566 36.78256319 -23.19335938 38.45507812 C-23.3003749 42.5532775 -23.40168857 46.65158296 -23.5 50.75 C-25.81 50.75 -28.12 50.75 -30.5 50.75 C-30.5 33.92 -30.5 17.09 -30.5 -0.25 C-28.52 -0.25 -26.54 -0.25 -24.5 -0.25 C-24.17 1.4 -23.84 3.05 -23.5 4.75 C-22.571875 3.945625 -21.64375 3.14125 -20.6875 2.3125 C-14.9612694 -2.65023319 -6.89586553 -2.46280912 0 0 Z " fill="#10988C" transform="translate(214.5,86.25)"/>
<path d="M0 0 C0.32070642 3.44759397 0.30829899 5.46382785 -1.4375 8.5 C-3.71987466 10.72670699 -5.76265739 12.18984915 -8.4375 13.875 C-13.81668403 17.32546344 -16.63642391 21.07805124 -19.3125 26.8125 C-21.18421939 35.4904717 -19.81080943 42.07240373 -16 50 C-15.70867188 50.71414062 -15.41734375 51.42828125 -15.1171875 52.1640625 C-13.7077492 54.48027229 -12.48020755 54.97417886 -10 56 C-9.34 56.34160156 -8.68 56.68320313 -8 57.03515625 C-7.34 57.37417969 -6.68 57.71320313 -6 58.0625 C-5.34 58.40410156 -4.68 58.74570313 -4 59.09765625 C2.30867465 61.94395282 8.15052386 61.47356337 14.625 59.3125 C21.80529386 56.49727549 24.9280326 52.25215404 28.82421875 45.87109375 C30.35039721 43.44239115 31.64075934 41.66534635 34 40 C37.75 39.75 37.75 39.75 41 40 C39.00678121 51.41570763 34.53390878 59.17019825 25 66 C15.87343942 71.05246394 6.28390955 72.6511453 -4.015625 70.31640625 C-14.79364166 66.68861014 -22.70043432 60.00451057 -28.1015625 49.94921875 C-31.57166524 41.33882362 -31.2697955 30.77111074 -28.375 22.0625 C-24.28192482 12.45019104 -18.25787352 6.33912584 -8.75 1.96484375 C-5.73094508 0.77165109 -3.26377721 0 0 0 Z " fill="#13918C" transform="translate(30,67)"/>
<path d="M0 0 C2.97 0 5.94 0 9 0 C9.75506836 1.93311035 9.75506836 1.93311035 10.52539062 3.90527344 C12.43310713 8.78872906 14.34189758 13.67176436 16.25097656 18.5546875 C17.06961884 20.64897798 17.8879881 22.7433752 18.70605469 24.83789062 C19.89702778 27.88701584 21.08908828 30.93571435 22.28125 33.984375 C22.67320557 34.98867554 23.06516113 35.99297607 23.46899414 37.02770996 C25.40569136 41.97853457 27.36555012 46.91769436 29.37890625 51.83789062 C29.93910461 53.21270599 29.93910461 53.21270599 30.51062012 54.61529541 C31.21396605 56.33632496 31.92303593 58.05503043 32.63879395 59.77093506 C32.95070679 60.53520813 33.26261963 61.2994812 33.58398438 62.08691406 C33.85867554 62.74951233 34.1333667 63.4121106 34.41638184 64.0947876 C35 66 35 66 35 70 C32.36 70 29.72 70 27 70 C24.36 63.07 21.72 56.14 19 49 C4.15 48.505 4.15 48.505 -11 48 C-11.99 51.3 -12.98 54.6 -14 58 C-14.85629778 60.22396213 -15.74567245 62.43588732 -16.6875 64.625 C-17.12449219 65.64851563 -17.56148438 66.67203125 -18.01171875 67.7265625 C-18.33785156 68.47679687 -18.66398437 69.22703125 -19 70 C-21.64 70 -24.28 70 -27 70 C-26.36424613 66.29699739 -25.33183937 63.0251232 -23.93041992 59.54223633 C-23.50294968 58.47374954 -23.07547943 57.40526276 -22.63505554 56.30439758 C-22.1715419 55.15851669 -21.70802826 54.0126358 -21.23046875 52.83203125 C-20.7530574 51.64204025 -20.27564606 50.45204926 -19.7837677 49.22599792 C-18.51502908 46.06367401 -17.24113732 42.90345124 -15.96612549 39.74365234 C-14.6820371 36.55884741 -13.40271168 33.37213117 -12.12304688 30.18554688 C-10.23724249 25.49088473 -8.34876206 20.79730905 -6.45776367 16.10473633 C-4.29634408 10.74000878 -2.14474257 5.37141493 0 0 Z M4 10 C0.78575316 16.72473762 -2.08653206 23.56584946 -4.8125 30.5 C-5.28345093 31.68408447 -5.28345093 31.68408447 -5.76391602 32.89208984 C-6.05451904 33.6392627 -6.34512207 34.38643555 -6.64453125 35.15625 C-6.90596924 35.82462891 -7.16740723 36.49300781 -7.43676758 37.18164062 C-8.14793939 39.16034745 -8.14793939 39.16034745 -8 42 C-0.08 42 7.84 42 16 42 C15.18043523 37.90217616 14.16865914 34.48844404 12.71484375 30.60546875 C12.04291992 28.80239258 12.04291992 28.80239258 11.35742188 26.96289062 C10.88419654 25.70439626 10.41088821 24.4459331 9.9375 23.1875 C9.45994011 21.90963459 8.982723 20.63164102 8.50585938 19.35351562 C7.34060488 16.23440005 6.17186993 13.11663485 5 10 C4.67 10 4.34 10 4 10 Z " fill="#0C9A8B" transform="translate(284,67)"/>
<path d="M0 0 C5.98411537 3.53832548 9.54770138 8.80039399 11.5625 15.375 C11.5625 19.335 11.5625 23.295 11.5625 27.375 C-0.6475 27.375 -12.8575 27.375 -25.4375 27.375 C-23.67047399 36.2414646 -23.67047399 36.2414646 -18.4375 42.375 C-14.19189121 44.92762843 -10.27347236 45.03101016 -5.4375 44.375 C0.29673558 41.77836502 2.26406266 37.9453305 4.5625 32.375 C6.8725 32.375 9.1825 32.375 11.5625 32.375 C11.02459337 39.09883291 9.08137549 43.04988416 4.125 47.625 C-2.37798328 52.06606175 -8.76550584 52.10876215 -16.4375 51.375 C-22.69826049 49.68317637 -26.88665413 45.68369035 -30.4375 40.375 C-34.47483552 32.10807489 -34.3800035 20.98508413 -31.4375 12.375 C-28.64044758 6.49610436 -25.14611778 2.11874533 -19.14453125 -0.703125 C-13.05738784 -2.77609159 -5.88335103 -2.68441872 0 0 Z M-21.6875 9.75 C-24.40358977 13.82413465 -25.4375 16.44197731 -25.4375 21.375 C-15.5375 21.375 -5.6375 21.375 4.5625 21.375 C4.1189771 14.27071398 4.1189771 14.27071398 0.75 9.5 C0.24855469 8.94570312 -0.25289062 8.39140625 -0.76953125 7.8203125 C-3.71749557 5.26587035 -5.91714115 4.42318137 -9.8125 4.0625 C-15.01234929 4.51076287 -18.09696448 5.95999028 -21.6875 9.75 Z " fill="#11958C" transform="translate(164.4375,86.625)"/>
<path d="M0 0 C2.31 0 4.62 0 7 0 C7.33 7.59 7.66 15.18 8 23 C9.98 21.68 11.96 20.36 14 19 C19.9107637 17.02974543 26.62848544 17.19537899 32.5 19.1875 C38.01617561 23.18672731 39.8230182 27.422653 41 34 C41.23659288 36.89185868 41.23543056 39.75632073 41.1953125 42.65625 C41.1924826 43.44398804 41.18965271 44.23172607 41.18673706 45.04333496 C41.17565169 47.52905264 41.1505701 50.0143935 41.125 52.5 C41.1149551 54.19791142 41.10583191 55.89582855 41.09765625 57.59375 C41.07575071 61.72930914 41.04130326 65.86459096 41 70 C38.69 70 36.38 70 34 70 C33.970271 68.56333984 33.970271 68.56333984 33.93994141 67.09765625 C33.86331749 63.51163407 33.77469255 59.92598797 33.68261719 56.34033203 C33.64456022 54.79450965 33.60966868 53.24860572 33.578125 51.70263672 C33.53196346 49.46812982 33.4740602 47.23417329 33.4140625 45 C33.40251129 44.31945557 33.39096008 43.63891113 33.37905884 42.93774414 C33.21877625 37.61308013 32.82429198 31.45882833 29.5625 27.0625 C25.88351552 24.56079055 22.29586287 24.70875506 18 25 C13.23803713 26.58732096 11.22040295 28.60495318 8.83166504 32.99319458 C7.41757091 36.40539976 7.39677939 39.68592925 7.390625 43.33984375 C7.37408875 44.10680069 7.35755249 44.87375763 7.34051514 45.66395569 C7.29233458 48.08855432 7.27073244 50.51252727 7.25 52.9375 C7.22181504 54.59182785 7.1918841 56.24612693 7.16015625 57.90039062 C7.08658467 61.93354214 7.03682827 65.96635243 7 70 C4.69 70 2.38 70 0 70 C0 46.9 0 23.8 0 0 Z " fill="#10968C" transform="translate(83,67)"/>
<path d="M0 0 C2.50439453 1.19580078 2.50439453 1.19580078 5.1328125 2.6953125 C6.10476563 3.24703125 7.07671875 3.79875 8.078125 4.3671875 C9.08359375 4.94726562 10.0890625 5.52734375 11.125 6.125 C12.10726562 6.681875 13.08953125 7.23875 14.1015625 7.8125 C16.09064688 8.94837187 18.06345492 10.11320265 20.01928711 11.30541992 C22.95883025 13.07455952 22.95883025 13.07455952 26.17016602 14.2199707 C29.72128518 15.78930949 31.61196172 16.91012512 34 20 C35.83511653 27.09081825 35.02660481 34.69996798 34.6875 41.9375 C34.63228863 43.97708233 34.58210449 46.01680735 34.53710938 48.05664062 C34.41621745 53.04129265 34.22665033 58.0190817 34 63 C32.54462432 63.83848804 31.08559627 64.67063934 29.625 65.5 C28.40683594 66.19609375 28.40683594 66.19609375 27.1640625 66.90625 C25 68 25 68 23 68 C17.06 57.605 17.06 57.605 11 47 C14 44 14 44 17 42.125 C21.46532248 38.96206324 22.6589356 36.48606633 23.875 31.1875 C24.41588017 25.21528143 22.43559426 20.74599302 18.6875 16.1875 C12.76693347 11.36843422 7.37771197 9.93943129 -0.078125 9.68359375 C-1.23828125 9.64169922 -2.3984375 9.59980469 -3.59375 9.55664062 C-4.8003125 9.51732422 -6.006875 9.47800781 -7.25 9.4375 C-8.47203125 9.39431641 -9.6940625 9.35113281 -10.953125 9.30664062 C-13.9686392 9.20062645 -16.98423448 9.09856064 -20 9 C-17.30023957 6.18812163 -14.47205159 4.26991642 -11.125 2.25 C-10.09632813 1.61578125 -9.06765625 0.9815625 -8.0078125 0.328125 C-4.52006242 -1.21192049 -3.57786154 -1.02120343 0 0 Z " fill="#079F8B" transform="translate(383,61)"/>
<path d="M0 0 C1.65 0 3.3 0 5 0 C5.495 1.98 5.495 1.98 6 4 C6.62648437 3.90460938 7.25296875 3.80921875 7.8984375 3.7109375 C8.71570312 3.60007812 9.53296875 3.48921875 10.375 3.375 C11.59316406 3.20097656 11.59316406 3.20097656 12.8359375 3.0234375 C13.55007812 3.01570313 14.26421875 3.00796875 15 3 C17 5 17 5 17.2578125 6.84765625 C16.81805349 14.18128444 13.36788304 18.20866736 8 23 C2.85461903 26.50323811 -2.99475493 27.46691382 -9.14453125 26.75 C-16.98453241 25.0710705 -22.42132538 20.42804157 -27 14 C-28.30765478 10.07703567 -28.1971417 7.13997567 -28 3 C-25.3178507 0.3178507 -23.9337973 0.70108995 -20.1875 0.6875 C-13.17406027 0.7736025 -6.73984437 2.14681857 0 4 C0 2.68 0 1.36 0 0 Z " fill="#13918C" transform="translate(41,99)"/>
<path d="M0 0 C0 19.14 0 38.28 0 58 C-3.52892447 56.58843021 -6.54862203 55.22615467 -9.8125 53.375 C-10.99779297 52.70597656 -10.99779297 52.70597656 -12.20703125 52.0234375 C-12.79871094 51.68570313 -13.39039063 51.34796875 -14 51 C-14.22297148 44.98624962 -14.38601105 38.97491662 -14.49438477 32.95800781 C-14.53956701 30.91298509 -14.60092981 28.86825188 -14.67895508 26.82421875 C-14.78852332 23.87948281 -14.83924086 20.93859387 -14.87890625 17.9921875 C-14.92535782 17.0825827 -14.97180939 16.17297791 -15.01966858 15.23580933 C-15.02179323 12.5465079 -14.90985894 10.53482076 -14 8 C-11.30368853 5.35996064 -8.36362246 3.67066888 -5 2 C-3.89568382 1.42764114 -3.89568382 1.42764114 -2.76905823 0.84371948 C-1 0 -1 0 0 0 Z " fill="#0A9D8B" transform="translate(357,73)"/>
<path d="M0 0 C3.96 0 7.92 0 12 0 C13.88257395 3.49870648 15.75187979 7.00413971 17.60913086 10.51635742 C18.24288248 11.71034223 18.88023729 12.90242171 19.52124023 14.0925293 C20.44157053 15.80273253 21.34794609 17.52042236 22.25390625 19.23828125 C22.80377197 20.26993408 23.3536377 21.30158691 23.92016602 22.36450195 C25 25 25 25 24 28 C21.48828125 29.859375 21.48828125 29.859375 18.3125 31.75 C17.27738281 32.38421875 16.24226563 33.0184375 15.17578125 33.671875 C11.41070594 35.24644524 9.86007797 35.2344155 6 34 C2.8503418 32.375 2.8503418 32.375 0 30 C-0.68115234 26.79199219 -0.68115234 26.79199219 -0.5859375 23.046875 C-0.57744781 22.38665344 -0.56895813 21.72643188 -0.56021118 21.04620361 C-0.5267285 18.94577947 -0.45148521 16.84925453 -0.375 14.75 C-0.34489256 13.3229723 -0.31751808 11.89588414 -0.29296875 10.46875 C-0.22696218 6.97790827 -0.12348826 3.4893349 0 0 Z " fill="#10958C" transform="translate(370,109)"/>
<path d="M0 0 C4.55555556 0.55555556 4.55555556 0.55555556 6 2 C6.125 4.5 6.125 4.5 6 7 C5.67 7.33 5.34 7.66 5 8 C4.87442838 10.30993382 4.82424271 12.62418536 4.8125 14.9375 C4.79832031 16.20464844 4.78414063 17.47179687 4.76953125 18.77734375 C4.65286303 22.08943999 4.65286303 22.08943999 7 24 C7.20872719 26.78302919 7.25640898 28.48718205 6 31 C6.14655905 33.13229051 6.39023207 35.25845231 6.6875 37.375 C6.83574219 38.51710937 6.98398437 39.65921875 7.13671875 40.8359375 C8.10604132 44.38865822 9.37659398 45.53281323 12 48 C11.75 51.25 11.75 51.25 11 54 C9.1875 54.625 9.1875 54.625 7 55 C4 53 4 53 3.1875 50.3125 C1.25657759 44.92624275 -2.27310824 41.15126117 -7 38 C-7 37.34 -7 36.68 -7 36 C-8.65 36 -10.3 36 -12 36 C-12.33 34.68 -12.66 33.36 -13 32 C-13.83917969 31.83564453 -13.83917969 31.83564453 -14.6953125 31.66796875 C-19.99047129 30.62085536 -25.27876101 29.54075768 -30.5625 28.4375 C-31.76003906 28.18871094 -32.95757812 27.93992187 -34.19140625 27.68359375 C-37 27 -37 27 -38 26 C-38.1875 23.5625 -38.1875 23.5625 -38 21 C-37.34 20.34 -36.68 19.68 -36 19 C-33.375 19.375 -33.375 19.375 -31 20 C-30.67 21.65 -30.34 23.3 -30 25 C-29.02160156 25.29003906 -29.02160156 25.29003906 -28.0234375 25.5859375 C-23.3228602 26.98640448 -18.64159109 28.41208726 -14 30 C-15.17325643 27.12018877 -16.37938667 25.62061333 -18.625 23.375 C-19.40875 22.59125 -20.1925 21.8075 -21 21 C-21 20.34 -21 19.68 -21 19 C-21.804375 19.020625 -22.60875 19.04125 -23.4375 19.0625 C-26 19 -26 19 -27 18 C-27.1875 15.5625 -27.1875 15.5625 -27 13 C-26.34 12.34 -25.68 11.68 -25 11 C-21.875 11.375 -21.875 11.375 -19 12 C-18.91363281 12.58007812 -18.82726562 13.16015625 -18.73828125 13.7578125 C-17.69052696 19.58294188 -16.36379567 22.93373586 -12 27 C-8.84498835 28.41590372 -8.84498835 28.41590372 -6 29 C-4.875 33.75 -4.875 33.75 -6 36 C-5.34 36 -4.68 36 -4 36 C-2.34375 37.6796875 -2.34375 37.6796875 -0.5 39.875 C1.28933258 41.99035504 3.04019124 44.04019124 5 46 C4.85795259 44.41632253 4.71119847 42.83306682 4.5625 41.25 C4.48128906 40.36828125 4.40007812 39.4865625 4.31640625 38.578125 C4.06699735 36.04018545 4.06699735 36.04018545 3.40234375 33.796875 C3 32 3 32 4 30 C2.35 29.67 0.7 29.34 -1 29 C-1.2475 27.948125 -1.495 26.89625 -1.75 25.8125 C-2.76681062 22.17261272 -4.53666746 19.87388796 -7 17 C-7 16.34 -7 15.68 -7 15 C-7.66 15 -8.32 15 -9 15 C-9 14.34 -9 13.68 -9 13 C-9.804375 12.855625 -10.60875 12.71125 -11.4375 12.5625 C-14 12 -14 12 -15 11 C-15.125 8.5 -15.125 8.5 -15 6 C-14 5 -14 5 -11 4.875 C-8 5 -8 5 -7 6 C-6.75556535 7.37236805 -6.52954704 8.74803488 -6.3125 10.125 C-5.21270771 15.45345103 -2.76153222 18.15669534 1 22 C1.33 17.38 1.66 12.76 2 8 C0.68 7.67 -0.64 7.34 -2 7 C-2.125 4.625 -2.125 4.625 -2 2 C-1.34 1.34 -0.68 0.68 0 0 Z " fill="#00A68A" transform="translate(351,4)"/>
<path d="M0 0 C4.55555556 0.55555556 4.55555556 0.55555556 6 2 C6.04063832 3.66617115 6.042721 5.33388095 6 7 C4.68 7.33 3.36 7.66 2 8 C2 12.62 2 17.24 2 22 C7.42316978 17.78550245 7.42316978 17.78550245 11 12 C11.16724737 8.83304044 11.16724737 8.83304044 11 6 C12 5 12 5 15.0625 4.9375 C16.5165625 4.9684375 16.5165625 4.9684375 18 5 C18.33 6.98 18.66 8.96 19 11 C18.48050781 11.36351562 17.96101563 11.72703125 17.42578125 12.1015625 C10.29207337 17.24416152 6.2407626 21.20931594 4 30 C3.34 30.33 2.68 30.66 2 31 C1.043231 33.96451504 1.043231 33.96451504 0.3125 37.4375 C0.04050781 38.61183594 -0.23148437 39.78617188 -0.51171875 40.99609375 C-1.28663016 43.91417681 -1.28663016 43.91417681 0 46 C6.72938666 39.88054699 6.72938666 39.88054699 9.1875 31.375 C9.455625 30.59125 9.72375 29.8075 10 29 C11.68178879 28.30749873 13.36771259 27.62234049 15.078125 27.00390625 C18.73692754 25.09270249 21.17877336 21.64245329 23 18 C23.02225321 16.3334819 23.02474975 14.66648289 23 13 C23.66 12.34 24.32 11.68 25 11 C29.55555556 11.55555556 29.55555556 11.55555556 31 13 C31.125 15.5 31.125 15.5 31 18 C30 19 30 19 27.4375 19.0625 C26.633125 19.041875 25.82875 19.02125 25 19 C24.7525 19.556875 24.505 20.11375 24.25 20.6875 C22.78393985 23.39971127 20.97010529 25.63587365 19 28 C19.87011719 27.80083984 19.87011719 27.80083984 20.7578125 27.59765625 C25.15770982 26.60295999 29.53894158 25.68631668 34 25 C34.33 23.35 34.66 21.7 35 20 C37.375 19.375 37.375 19.375 40 19 C42 21 42 21 42.1875 23.5625 C42 26 42 26 41 27 C39.99582031 26.97421875 38.99164063 26.9484375 37.95703125 26.921875 C33.49206565 27.01002832 29.91019592 27.91157368 25.6875 29.25 C24.97271484 29.45496094 24.25792969 29.65992187 23.52148438 29.87109375 C19.42432901 31.08946059 19.42432901 31.08946059 16.6328125 34.14453125 C16.42398437 34.75683594 16.21515625 35.36914062 16 36 C15.401875 36.144375 14.80375 36.28875 14.1875 36.4375 C8.981244 37.77625154 5.16834109 43.91450755 2 48 C0.94205668 49.96996343 -0.07836462 51.96270075 -1 54 C-3.375 54.125 -3.375 54.125 -6 54 C-6.66 53.34 -7.32 52.68 -8 52 C-7.625 49.375 -7.625 49.375 -7 47 C-5.02 46.505 -5.02 46.505 -3 46 C-2.80613508 43.35448944 -2.61961733 40.70882217 -2.4375 38.0625 C-2.38142578 37.30775391 -2.32535156 36.55300781 -2.26757812 35.77539062 C-2.13823843 33.85254042 -2.06483088 31.92610452 -2 30 C-2.33 29.67 -2.66 29.34 -3 29 C-3.1875 26.5625 -3.1875 26.5625 -3 24 C-2.34 23.34 -1.68 22.68 -1 22 C-0.7178518 18.67740753 -0.7178518 18.67740753 -0.8125 14.9375 C-0.81894531 13.66777344 -0.82539063 12.39804687 -0.83203125 11.08984375 C-0.64811502 8.12932447 -0.64811502 8.12932447 -2 7 C-2.1875 4.5625 -2.1875 4.5625 -2 2 C-1.34 1.34 -0.68 0.68 0 0 Z " fill="#00A68A" transform="translate(405,4)"/>
<path d="M0 0 C2.64 0 5.28 0 8 0 C8 23.1 8 46.2 8 70 C5.36 70 2.72 70 0 70 C0 46.9 0 23.8 0 0 Z " fill="#0A9C8B" transform="translate(325,67)"/>
<path d="M0 0 C0.78375 0.04125 1.5675 0.0825 2.375 0.125 C2.725625 0.970625 3.07625 1.81625 3.4375 2.6875 C6.88427082 8.80273856 12.44934969 14.57299871 19.0625 17.1875 C21.375 18.125 21.375 18.125 22.375 20.125 C25.27568434 20.93683607 28.1208281 21.62803335 31.0625 22.25 C31.86623047 22.43175781 32.66996094 22.61351562 33.49804688 22.80078125 C37.86718022 23.75105882 41.87517053 24.34308543 46.375 24.125 C47 27 47 27 47.375 30.125 C46.715 30.785 46.055 31.445 45.375 32.125 C42.25 31.75 42.25 31.75 39.375 31.125 C39.375 29.475 39.375 27.825 39.375 26.125 C38.56675781 25.99222656 37.75851562 25.85945313 36.92578125 25.72265625 C35.32283203 25.45775391 35.32283203 25.45775391 33.6875 25.1875 C32.10388672 24.92646484 32.10388672 24.92646484 30.48828125 24.66015625 C27.77250396 24.19332879 25.07375765 23.68077384 22.375 23.125 C28.57015643 29.74721596 28.57015643 29.74721596 36.375 34.125 C36.375 36.105 36.375 38.085 36.375 40.125 C34.0625 40.75 34.0625 40.75 31.375 41.125 C30.385 40.465 29.395 39.805 28.375 39.125 C28.705 37.145 29.035 35.165 29.375 33.125 C28.715 33.125 28.055 33.125 27.375 33.125 C26.43502682 32.03661 25.54659174 30.90330124 24.6875 29.75 C21.54991246 25.91517079 19.19232578 24.99211864 14.375 24.125 C13.25 19.375 13.25 19.375 14.375 17.125 C13.715 17.125 13.055 17.125 12.375 17.125 C10.80541807 15.44778959 9.4269475 13.65705886 8.0078125 11.8515625 C6.26097642 10.00442961 4.69613778 9.11977333 2.375 8.125 C2.5915625 8.95644531 2.808125 9.78789062 3.03125 10.64453125 C3.3096875 11.73121094 3.588125 12.81789062 3.875 13.9375 C4.1534375 15.01644531 4.431875 16.09539062 4.71875 17.20703125 C5.375 20.125 5.375 20.125 5.375 23.125 C6.00792969 23.21394531 6.64085937 23.30289063 7.29296875 23.39453125 C7.98003906 23.63558594 8.66710937 23.87664062 9.375 24.125 C10.06772822 26.07123644 10.75396277 28.02047621 11.3828125 29.98828125 C12.86018595 33.16986896 15.17502859 34.84220546 17.94921875 36.8984375 C18.41972656 37.30320313 18.89023437 37.70796875 19.375 38.125 C19.375 38.785 19.375 39.445 19.375 40.125 C21.025 40.125 22.675 40.125 24.375 40.125 C25 43 25 43 25.375 46.125 C23.375 48.125 23.375 48.125 20.8125 48.3125 C18.375 48.125 18.375 48.125 17.375 47.125 C17.18328916 45.75058078 16.99667041 44.37544993 16.8125 43 C15.59724271 37.01940309 12.10900815 34.7136836 7.375 31.125 C7.705 35.745 8.035 40.365 8.375 45.125 C9.695 45.455 11.015 45.785 12.375 46.125 C12.375 48.105 12.375 50.085 12.375 52.125 C10.725 52.785 9.075 53.445 7.375 54.125 C5.8125 52.9375 5.8125 52.9375 4.375 51.125 C4.6941575 49.45556076 5.031235 47.78954634 5.375 46.125 C5.44274144 43.51018042 5.47000258 40.92520744 5.4375 38.3125 C5.43298828 37.61962891 5.42847656 36.92675781 5.42382812 36.21289062 C5.41213156 34.51688932 5.39419924 32.82093297 5.375 31.125 C4.385 30.795 3.395 30.465 2.375 30.125 C2.39820313 29.54234375 2.42140625 28.9596875 2.4453125 28.359375 C2.59797339 21.42420897 1.68382467 14.92621389 0.375 8.125 C-0.945 7.795 -2.265 7.465 -3.625 7.125 C-4.25 4.75 -4.25 4.75 -4.625 2.125 C-2.625 0.125 -2.625 0.125 0 0 Z " fill="#19858C" transform="translate(404.625,144.875)"/>
<path d="M0 0 C2.5 0.125 2.5 0.125 3.5 1.125 C3.54080783 3.12458364 3.54254356 5.12545254 3.5 7.125 C2.87738281 7.30417969 2.25476563 7.48335937 1.61328125 7.66796875 C-1.08025729 9.52506649 -1.35346296 11.2597349 -1.96679688 14.38867188 C-2.08087891 15.06478516 -2.19496094 15.74089844 -2.3125 16.4375 C-2.44591797 17.10201172 -2.57933594 17.76652344 -2.71679688 18.45117188 C-3.43454957 22.33164231 -3.41006045 25.31108254 -2.5 29.125 C-2.83 29.785 -3.16 30.445 -3.5 31.125 C-4.49 31.125 -5.48 31.125 -6.5 31.125 C-6.52685412 33.43743792 -6.54632841 35.7499627 -6.5625 38.0625 C-6.57410156 39.35027344 -6.58570313 40.63804687 -6.59765625 41.96484375 C-6.86532549 44.98798403 -6.86532549 44.98798403 -5.5 46.125 C-5.375 49.125 -5.375 49.125 -5.5 52.125 C-6.5 53.125 -6.5 53.125 -9.5625 53.1875 C-10.531875 53.166875 -11.50125 53.14625 -12.5 53.125 C-12.995 50.155 -12.995 50.155 -13.5 47.125 C-12.86578125 46.94195312 -12.2315625 46.75890625 -11.578125 46.5703125 C-9.14400014 45.21400123 -9.14400014 45.21400123 -8.671875 41.8671875 C-8.53265625 40.59101563 -8.3934375 39.31484375 -8.25 38 C-8.10046875 36.71867187 -7.9509375 35.43734375 -7.796875 34.1171875 C-7.69890625 33.12976563 -7.6009375 32.14234375 -7.5 31.125 C-8.79854721 32.20007629 -10.08858361 33.28543736 -11.375 34.375 C-12.09429687 34.97828125 -12.81359375 35.5815625 -13.5546875 36.203125 C-16.84761408 39.45637776 -17.75056125 42.62836752 -18.5 47.125 C-23.25 48.25 -23.25 48.25 -25.5 47.125 C-25.5 45.145 -25.5 43.165 -25.5 41.125 C-24.2625 40.63 -24.2625 40.63 -23 40.125 C-18.35672895 37.78674179 -14.69967486 34.17995788 -11.5 30.125 C-10.38553286 26.83104085 -10.38553286 26.83104085 -10.5 24.125 C-8.85 23.795 -7.2 23.465 -5.5 23.125 C-5.314375 21.3925 -5.314375 21.3925 -5.125 19.625 C-4.59721115 15.34149625 -3.61601963 11.29147328 -2.5 7.125 C-4.49310021 8.84719339 -6.47858441 10.57683517 -8.453125 12.3203125 C-9.95572764 13.64512628 -11.4736573 14.9526087 -13 16.25 C-14.93451915 18.66814893 -14.65891396 20.10563471 -14.5 23.125 C-15.16 23.785 -15.82 24.445 -16.5 25.125 C-17.29019531 25.09277344 -18.08039063 25.06054688 -18.89453125 25.02734375 C-21.56598705 24.87491953 -21.56598705 24.87491953 -23.44921875 26.62890625 C-27.17609376 31.04253126 -29.42969801 34.4167227 -30.5 40.125 C-32.3125 40.75 -32.3125 40.75 -34.5 41.125 C-35.49 40.465 -36.48 39.805 -37.5 39.125 C-37.6875 36.5 -37.6875 36.5 -37.5 34.125 C-36.324375 33.63 -35.14875 33.135 -33.9375 32.625 C-28.9380925 30.16539845 -25.87250654 26.46710216 -22.5 22.125 C-23.55960937 22.41375 -24.61921875 22.7025 -25.7109375 23 C-27.09892288 23.37513119 -28.48694567 23.75012401 -29.875 24.125 C-30.57367188 24.31578125 -31.27234375 24.5065625 -31.9921875 24.703125 C-37.2734375 26.125 -37.2734375 26.125 -39.5 26.125 C-39.83 27.775 -40.16 29.425 -40.5 31.125 C-45.25 32.25 -45.25 32.25 -47.5 31.125 C-47.54254356 29.12545254 -47.54080783 27.12458364 -47.5 25.125 C-47.17 24.795 -46.84 24.465 -46.5 24.125 C-45.5925 24.16625 -44.685 24.2075 -43.75 24.25 C-38.828027 24.35232792 -34.22775934 22.98421976 -29.48828125 21.78125 C-26.5 21.125 -26.5 21.125 -22.5 21.125 C-22.17 19.805 -21.84 18.485 -21.5 17.125 C-20.778125 17.063125 -20.05625 17.00125 -19.3125 16.9375 C-15.58483095 15.86061783 -14.09296172 13.97725789 -11.5 11.125 C-9.87163262 9.4208946 -8.21230248 7.74474559 -6.5 6.125 C-5.84 6.125 -5.18 6.125 -4.5 6.125 C-4.355625 5.320625 -4.21125 4.51625 -4.0625 3.6875 C-3.2891492 0.16445746 -3.2891492 0.16445746 0 0 Z " fill="#1A838C" transform="translate(355.5,144.875)"/>
<path d="M0 0 C2.5625 0.1875 2.5625 0.1875 4.5625 2.1875 C4.1875 4.8125 4.1875 4.8125 3.5625 7.1875 C2.5725 7.5175 1.5825 7.8475 0.5625 8.1875 C0.64950798 10.62672361 0.75636002 13.06228414 0.875 15.5 C0.89755859 16.19029297 0.92011719 16.88058594 0.94335938 17.59179688 C1.07763058 21.53680529 1.07763058 21.53680529 2.98046875 24.85546875 C3.50253906 25.29503906 4.02460938 25.73460937 4.5625 26.1875 C4.8409375 26.97640625 5.119375 27.7653125 5.40625 28.578125 C6.94668455 32.05451108 9.0870759 33.6041411 12.0625 35.9375 C13.0421875 36.71609375 14.021875 37.4946875 15.03125 38.296875 C17.39011142 40.17503019 17.39011142 40.17503019 19.5625 41.1875 C19.5625 41.8475 19.5625 42.5075 19.5625 43.1875 C21.2125 43.5175 22.8625 43.8475 24.5625 44.1875 C24.60504356 46.18704746 24.60330783 48.18791636 24.5625 50.1875 C23.5625 51.1875 23.5625 51.1875 20.5625 51.3125 C17.5625 51.1875 17.5625 51.1875 16.5625 50.1875 C16.81 48.6715625 16.81 48.6715625 17.0625 47.125 C16.3805919 41.75497374 13.88116932 40.21198098 9.82421875 36.88671875 C8.11010005 35.59890936 6.3464003 34.37676687 4.5625 33.1875 C4.7790625 33.80238281 4.995625 34.41726562 5.21875 35.05078125 C5.4971875 35.85902344 5.775625 36.66726562 6.0625 37.5 C6.3409375 38.30050781 6.619375 39.10101563 6.90625 39.92578125 C7.5625 42.1875 7.5625 42.1875 7.5625 45.1875 C8.8825 45.8475 10.2025 46.5075 11.5625 47.1875 C10.6875 52.0625 10.6875 52.0625 9.5625 53.1875 C7.89632885 53.22813832 6.22861905 53.230221 4.5625 53.1875 C3.4375 50.9375 3.4375 50.9375 2.5625 48.1875 C3.07296875 47.30578125 3.07296875 47.30578125 3.59375 46.40625 C4.98949702 43.20953907 4.12153995 41.24256443 3.1875 37.9375 C2.74277344 36.32101563 2.74277344 36.32101563 2.2890625 34.671875 C2.04929687 33.85203125 1.80953125 33.0321875 1.5625 32.1875 C0.9025 32.1875 0.2425 32.1875 -0.4375 32.1875 C-2.57952312 38.03981315 -4.26059691 42.6481833 -2.8125 48.875 C-2.68875 49.638125 -2.565 50.40125 -2.4375 51.1875 C-4.4375 53.1875 -4.4375 53.1875 -7 53.375 C-9.4375 53.1875 -9.4375 53.1875 -10.4375 52.1875 C-10.75 49.375 -10.75 49.375 -10.4375 46.1875 C-9.839375 45.61 -9.24125 45.0325 -8.625 44.4375 C-5.20849343 40.92337896 -4.67423852 36.88710636 -3.4375 32.1875 C-7.7275 35.8175 -12.0175 39.4475 -16.4375 43.1875 C-16.1075 44.8375 -15.7775 46.4875 -15.4375 48.1875 C-16.0975 49.1775 -16.7575 50.1675 -17.4375 51.1875 C-19.9375 51.5 -19.9375 51.5 -22.4375 51.1875 C-23.0975 50.5275 -23.7575 49.8675 -24.4375 49.1875 C-24.30859375 46.73828125 -24.30859375 46.73828125 -23.4375 44.1875 C-21.72265625 42.66796875 -21.72265625 42.66796875 -19.5 41.375 C-15.8758006 39.11568339 -12.39707272 36.77974299 -9 34.1875 C-7.76443359 33.259375 -7.76443359 33.259375 -6.50390625 32.3125 C-4.03663907 29.77527251 -3.31909983 27.57900974 -2.4375 24.1875 C-1.7775 24.1875 -1.1175 24.1875 -0.4375 24.1875 C-0.61152344 23.65640625 -0.78554688 23.1253125 -0.96484375 22.578125 C-1.55871071 19.57443428 -1.29771606 16.98081972 -1 13.9375 C-0.89816406 12.85984375 -0.79632813 11.7821875 -0.69140625 10.671875 C-0.60761719 9.85203125 -0.52382813 9.0321875 -0.4375 8.1875 C-1.4275 7.8575 -2.4175 7.5275 -3.4375 7.1875 C-3.48004356 5.18795254 -3.47830783 3.18708364 -3.4375 1.1875 C-2.4375 0.1875 -2.4375 0.1875 0 0 Z " fill="#1D7F8B" transform="translate(379.4375,150.8125)"/>
<path d="M0 0 C3.06345144 -0.10822792 6.1230601 -0.18741479 9.1875 -0.25 C10.05181641 -0.28351563 10.91613281 -0.31703125 11.80664062 -0.3515625 C16.02445813 -0.41620338 18.36481933 -0.38224701 22.05078125 1.8359375 C24.57641617 4.63994901 25 6.23516883 25 10 C23.04886748 15.33994164 23.04886748 15.33994164 20.15722656 17.15966797 C17.81853506 18.07068836 16.17128841 18.23101841 13.671875 18.1953125 C12.9509668 18.19031738 12.23005859 18.18532227 11.48730469 18.18017578 C10.58399414 18.16196777 9.68068359 18.14375977 8.75 18.125 C4.41875 18.063125 4.41875 18.063125 0 18 C0 12.06 0 6.12 0 0 Z " fill="#03A18B" transform="translate(370,81)"/>
<path d="M0 0 C4.55555556 0.55555556 4.55555556 0.55555556 6 2 C6.04063832 3.66617115 6.042721 5.33388095 6 7 C5.01 7.33 4.02 7.66 3 8 C3 12.62 3 17.24 3 22 C3.66 22 4.32 22 5 22 C5.41378906 21.12601563 5.41378906 21.12601563 5.8359375 20.234375 C6.95484383 18.08667561 8.22962758 16.22473757 9.625 14.25 C12.37027678 9.96704619 12.44689281 7.00519949 12 2 C14.875 1.375 14.875 1.375 18 1 C18.66 1.66 19.32 2.32 20 3 C19.625 6.125 19.625 6.125 19 9 C18.01 9.33 17.02 9.66 16 10 C15.67 10.66 15.34 11.32 15 12 C14.34 12 13.68 12 13 12 C12.7525 12.53625 12.505 13.0725 12.25 13.625 C11 16 11 16 9 18.8125 C6.8917413 22.1725373 5.97432415 25.17765142 5 29 C4.67 29.33 4.34 29.66 4 30 C3.76321284 32.69235776 3.57801975 35.36498156 3.4375 38.0625 C3.39431641 38.82111328 3.35113281 39.57972656 3.30664062 40.36132812 C3.20026367 42.24065438 3.09960066 44.12030244 3 46 C4.485 46.495 4.485 46.495 6 47 C6.125 49.375 6.125 49.375 6 52 C5.34 52.66 4.68 53.32 4 54 C-0.55555556 53.44444444 -0.55555556 53.44444444 -2 52 C-2.04063832 50.33382885 -2.042721 48.66611905 -2 47 C-0.515 46.505 -0.515 46.505 1 46 C0.8863485 43.37405216 0.75960946 40.74988453 0.625 38.125 C0.5940625 37.37863281 0.563125 36.63226563 0.53125 35.86328125 C0.44356169 31.46526812 0.44356169 31.46526812 -2 28 C-1.896875 27.13375 -1.79375 26.2675 -1.6875 25.375 C-2.11369291 20.77211654 -4.318787 18.95933712 -7.46875 15.734375 C-9 14 -9 14 -9 12 C-9.66 12 -10.32 12 -11 12 C-11.33 11.34 -11.66 10.68 -12 10 C-12.99 9.67 -13.98 9.34 -15 9 C-15.625 6.125 -15.625 6.125 -16 3 C-14 1 -14 1 -11.375 0.875 C-10.59125 0.91625 -9.8075 0.9575 -9 1 C-7.9375 3.25 -7.9375 3.25 -7 6 C-7.3403125 6.8971875 -7.3403125 6.8971875 -7.6875 7.8125 C-8.26389529 10.21889132 -8.26389529 10.21889132 -6.34765625 12.796875 C-5.59355469 13.77140625 -4.83945312 14.7459375 -4.0625 15.75 C-2.93521484 17.22726563 -2.93521484 17.22726563 -1.78515625 18.734375 C-1.19605469 19.48203125 -0.60695313 20.2296875 0 21 C0.33 16.71 0.66 12.42 1 8 C0.01 7.67 -0.98 7.34 -2 7 C-2.125 4.625 -2.125 4.625 -2 2 C-1.34 1.34 -0.68 0.68 0 0 Z " fill="#00A68A" transform="translate(378,0)"/>
<path d="M0 0 C10.15674777 1.57523634 17.13520803 5.89777965 23.56640625 13.96484375 C27.54638335 19.42172802 29.19105938 24.31926623 30 31 C23.70605187 31.48414986 23.70605187 31.48414986 20.8125 29.5 C19.25591436 27.35298533 18.275885 25.51213014 17.1875 23.125 C14.36872487 17.20116789 9.74823487 13.89069792 4.125 10.75 C1 9 1 9 0 7 C-0.04022391 4.6670134 -0.04320247 2.33293334 0 0 Z " fill="#0D9C8B" transform="translate(41,67)"/>
<path d="M0 0 C2.6875 0.875 2.6875 0.875 5 2 C5.50488515 6.06190843 6.0030519 10.12461351 6.5 14.1875 C6.64308594 15.33798828 6.78617187 16.48847656 6.93359375 17.67382812 C7.06894531 18.78564453 7.20429688 19.89746094 7.34375 21.04296875 C7.46943359 22.06414795 7.59511719 23.08532715 7.72460938 24.13745117 C7.97897068 26.78141061 8.05115721 29.3462199 8 32 C4.45757964 29.12114541 1.165692 26.36966764 -1.5625 22.6875 C-4.41195238 19.5457961 -5.86605835 19.28185966 -10 19 C-11 18 -11 18 -11.1875 15.5625 C-11 13 -11 13 -9 11 C-4.44444444 11.55555556 -4.44444444 11.55555556 -3 13 C-2.95936168 14.66617115 -2.957279 16.33388095 -3 18 C-2.34 18 -1.68 18 -1 18 C0.3726682 19.97321053 1.70427617 21.97543152 3 24 C3.66 24.66 4.32 25.32 5 26 C4.34 20.72 3.68 15.44 3 10 C0.525 9.01 0.525 9.01 -2 8 C-3 7 -3 7 -3.25 4.5625 C-3.1675 3.716875 -3.085 2.87125 -3 2 C-2.01 1.34 -1.02 0.68 0 0 Z " fill="#00A68A" transform="translate(306,32)"/>
<path d="M0 0 C-1.91023885 5.86096009 -3.95717054 11.65389399 -6.1328125 17.421875 C-6.97900263 19.9375754 -7.53975198 22.38879695 -8 25 C-10.3125 25.6875 -10.3125 25.6875 -13 26 C-14.875 24.875 -14.875 24.875 -16 23 C-15.6875 20.3125 -15.6875 20.3125 -15 18 C-13.61941406 17.70996094 -13.61941406 17.70996094 -12.2109375 17.4140625 C-7.94521415 15.5354836 -7.37247964 13.61887914 -5.625 9.375 C-5.12226563 8.18648437 -4.61953125 6.99796875 -4.1015625 5.7734375 C-3.73804688 4.85820312 -3.37453125 3.94296875 -3 3 C-4.8012015 3.87650441 -6.59073235 4.77701895 -8.375 5.6875 C-9.37273437 6.18636719 -10.37046875 6.68523437 -11.3984375 7.19921875 C-14.34538367 9.23907188 -15.0399928 10.60527573 -16 14 C-17.99954746 14.04254356 -20.00041636 14.04080783 -22 14 C-23 13 -23 13 -23.1875 10.5625 C-23 8 -23 8 -21 6 C-20.09636719 6.020625 -19.19273437 6.04125 -18.26171875 6.0625 C-14.34319118 5.98741444 -12.2295368 4.87092509 -8.8125 3 C-3.29166667 0 -3.29166667 0 0 0 Z " fill="#17898C" transform="translate(314,141)"/>
<path d="M0 0 C1.4540625 0.0309375 1.4540625 0.0309375 2.9375 0.0625 C3.5625 2.9375 3.5625 2.9375 3.9375 6.0625 C3.2775 6.7225 2.6175 7.3825 1.9375 8.0625 C0.6175 8.0625 -0.7025 8.0625 -2.0625 8.0625 C-2.0625 13.3425 -2.0625 18.6225 -2.0625 24.0625 C1.63990374 19.22988325 1.63990374 19.22988325 4 13.6875 C4.9375 11.0625 4.9375 11.0625 6.875 10.0625 C8.9375 10.0625 8.9375 10.0625 11.9375 12.0625 C12.25 14.5625 12.25 14.5625 11.9375 17.0625 C9.9375 19.0625 9.9375 19.0625 7.609375 19.37109375 C3.92366375 20.32485236 2.60724413 22.23835893 0.1875 25.125 C-1.21614549 26.78195237 -2.62937003 28.43098221 -4.0625 30.0625 C-4.3925 30.0625 -4.7225 30.0625 -5.0625 30.0625 C-5.17240255 23.35844443 -4.9546917 16.69455579 -4.625 10 C-4.58576416 9.14237061 -4.54652832 8.28474121 -4.50610352 7.40112305 C-4.12408777 0.08416506 -4.12408777 0.08416506 0 0 Z " fill="#00A68A" transform="translate(453.0625,32.9375)"/>
<path d="M0 0 C0.90878906 0.19916016 0.90878906 0.19916016 1.8359375 0.40234375 C7.18870506 1.53054245 12.41024138 2.30563348 17.87109375 2.65625 C20 3 20 3 23 5 C22.67 6.98 22.34 8.96 22 11 C20.1875 11.625 20.1875 11.625 18 12 C17.01 11.34 16.02 10.68 15 10 C15 8.68 15 7.36 15 6 C14.319375 5.87625 13.63875 5.7525 12.9375 5.625 C9.5722588 4.90899123 6.29986575 3.97054875 3 3 C6.27102608 10.6201057 6.27102608 10.6201057 12.375 15.6875 C13.24125 15.790625 14.1075 15.89375 15 16 C15.125 18.375 15.125 18.375 15 21 C14.34 21.66 13.68 22.32 13 23 C10.375 22.625 10.375 22.625 8 22 C7.76216797 21.19949219 7.76216797 21.19949219 7.51953125 20.3828125 C5.83210795 14.99424528 3.66370103 10.13608156 0.98828125 5.1640625 C0 3 0 3 0 0 Z " fill="#168D8C" transform="translate(446,144)"/>
<path d="M0 0 C2.5625 0.1875 2.5625 0.1875 4.5625 2.1875 C4.1875 4.8125 4.1875 4.8125 3.5625 7.1875 C2.5725 7.5175 1.5825 7.8475 0.5625 8.1875 C0.8925 13.1375 1.2225 18.0875 1.5625 23.1875 C0.5725 22.8575 -0.4175 22.5275 -1.4375 22.1875 C-1.1075 17.5675 -0.7775 12.9475 -0.4375 8.1875 C-1.4275 7.8575 -2.4175 7.5275 -3.4375 7.1875 C-3.48004356 5.18795254 -3.47830783 3.18708364 -3.4375 1.1875 C-2.4375 0.1875 -2.4375 0.1875 0 0 Z " fill="#178A8C" transform="translate(379.4375,150.8125)"/>
<path d="M0 0 C2.625 0.375 2.625 0.375 5 1 C5.625 3.375 5.625 3.375 6 6 C5.34 6.66 4.68 7.32 4 8 C1.375 7.625 1.375 7.625 -1 7 C-1.625 4.625 -1.625 4.625 -2 2 C-1.34 1.34 -0.68 0.68 0 0 Z " fill="#0F978C" transform="translate(32,91)"/>
<path d="M0 0 C1.32 0 2.64 0 4 0 C4 1.65 4 3.3 4 5 C2.35 4.67 0.7 4.34 -1 4 C-0.67 2.68 -0.34 1.36 0 0 Z " fill="#0F9A8C" transform="translate(39,85)"/>
<path d="M0 0 C1.98 0.495 1.98 0.495 4 1 C3.67 2.32 3.34 3.64 3 5 C1.68 5 0.36 5 -1 5 C-0.67 3.35 -0.34 1.7 0 0 Z " fill="#099F8B" transform="translate(34,68)"/>
<path d="M0 0 C0.66 0.33 1.32 0.66 2 1 C1.67 1.99 1.34 2.98 1 4 C0.34 3.67 -0.32 3.34 -1 3 C-0.67 2.01 -0.34 1.02 0 0 Z " fill="#00A58A" transform="translate(35,52)"/>
<path d="M0 0 C0.99 0.33 1.98 0.66 3 1 C2.67 1.66 2.34 2.32 2 3 C1.34 3 0.68 3 0 3 C0 2.01 0 1.02 0 0 Z " fill="#00A38B" transform="translate(30,58)"/>
</svg>
