<svg width="1440" height="1024" viewBox="0 0 1440 1024" fill="none" xmlns="http://www.w3.org/2000/svg">
<g clip-path="url(#clip0_1047_692)">
<rect width="1440" height="1024" fill="#EDF3F7"/>
<path opacity="0.3" d="M1150.18 657.502C1308.34 615.214 1428.24 463.171 1403.91 419.722C1379.59 376.273 1207.53 286.399 1073.03 301.429C938.524 316.458 842.048 401.192 865.436 521.231C888.824 641.27 992.022 699.79 1150.18 657.502Z" fill="#536B9B"/>
<path d="M972.79 458.621L965.833 459.735C965.101 457.8 964.1 456.158 962.828 454.808C961.576 453.455 960.138 452.381 958.514 451.586C956.907 450.77 955.182 450.24 953.34 449.998C951.498 449.756 949.624 449.788 947.716 450.094C944.238 450.651 941.228 452.035 938.685 454.245C936.162 456.452 934.342 459.401 933.226 463.089C932.129 466.775 931.978 471.106 932.775 476.08C933.572 481.054 935.068 485.121 937.262 488.28C939.474 491.435 942.124 493.667 945.211 494.976C948.316 496.281 951.608 496.655 955.087 496.098C956.994 495.792 958.785 495.237 960.459 494.432C962.133 493.626 963.607 492.594 964.883 491.335C966.174 490.054 967.203 488.575 967.97 486.899C968.753 485.2 969.191 483.327 969.285 481.279L976.242 480.164C976.188 483.184 975.656 485.965 974.643 488.505C973.631 491.046 972.226 493.294 970.43 495.251C968.631 497.189 966.517 498.784 964.09 500.036C961.682 501.285 959.028 502.141 956.129 502.606C951.23 503.391 946.681 502.892 942.482 501.11C938.284 499.327 934.737 496.404 931.842 492.342C928.947 488.279 927.014 483.218 926.043 477.159C925.072 471.099 925.327 465.688 926.808 460.924C928.289 456.16 930.745 452.276 934.177 449.271C937.608 446.266 941.774 444.371 946.674 443.586C949.572 443.121 952.361 443.106 955.039 443.54C957.736 443.971 960.243 444.836 962.561 446.133C964.875 447.412 966.911 449.1 968.666 451.197C970.418 453.275 971.793 455.75 972.79 458.621ZM991.929 469.48L996.082 495.399L989.462 496.46L980.258 439.011L986.878 437.95L990.257 459.045L990.818 458.955C991.472 456.568 992.703 454.558 994.513 452.925C996.339 451.271 998.944 450.173 1002.33 449.63C1005.27 449.16 1007.93 449.337 1010.33 450.162C1012.72 450.968 1014.72 452.479 1016.32 454.697C1017.94 456.893 1019.04 459.842 1019.63 463.545L1024.02 490.923L1017.4 491.984L1013.09 465.055C1012.54 461.632 1011.23 459.128 1009.15 457.543C1007.09 455.936 1004.5 455.382 1001.37 455.883C999.205 456.23 997.334 457 995.76 458.192C994.205 459.381 993.073 460.934 992.363 462.851C991.672 464.764 991.528 466.974 991.929 469.48ZM1054.34 486.986C1050.19 487.651 1046.46 487.309 1043.16 485.959C1039.87 484.587 1037.15 482.376 1034.99 479.326C1032.85 476.255 1031.42 472.513 1030.71 468.1C1030.01 463.686 1030.19 459.668 1031.26 456.044C1032.34 452.398 1034.18 449.399 1036.78 447.046C1039.39 444.671 1042.64 443.172 1046.53 442.549C1048.78 442.189 1051.05 442.208 1053.36 442.606C1055.67 443.003 1057.85 443.899 1059.92 445.295C1061.98 446.672 1063.76 448.649 1065.27 451.227C1066.78 453.806 1067.85 457.105 1068.5 461.126L1068.95 463.931L1035.73 469.252L1034.82 463.53L1061.3 459.287C1060.91 456.856 1060.07 454.765 1058.8 453.013C1057.54 451.258 1055.93 449.972 1053.98 449.153C1052.04 448.331 1049.88 448.112 1047.48 448.495C1044.85 448.918 1042.67 449.938 1040.95 451.556C1039.25 453.152 1038.05 455.07 1037.36 457.31C1036.66 459.551 1036.51 461.859 1036.89 464.234L1037.5 468.049C1038.02 471.303 1039.02 473.971 1040.51 476.054C1042.01 478.116 1043.86 479.574 1046.07 480.428C1048.27 481.264 1050.71 481.468 1053.39 481.039C1055.13 480.761 1056.66 480.266 1057.98 479.555C1059.32 478.822 1060.43 477.878 1061.3 476.722C1062.17 475.548 1062.76 474.167 1063.08 472.581L1069.76 473.352C1069.44 475.629 1068.61 477.718 1067.29 479.618C1065.96 481.5 1064.2 483.086 1062.01 484.377C1059.81 485.649 1057.26 486.519 1054.34 486.986ZM1082.11 481.617L1075.21 438.53L1081.6 437.505L1082.68 444.238L1083.24 444.148C1083.77 441.704 1084.93 439.686 1086.73 438.093C1088.52 436.482 1090.82 435.452 1093.63 435.003C1096.47 434.547 1098.94 434.814 1101.04 435.801C1103.15 436.767 1104.92 438.315 1106.36 440.445L1106.8 440.373C1107.55 437.971 1108.92 435.938 1110.92 434.276C1112.91 432.594 1115.45 431.506 1118.54 431.012C1122.39 430.395 1125.74 431.096 1128.57 433.116C1131.41 435.117 1133.23 438.652 1134.04 443.72L1138.66 472.557L1132.04 473.617L1127.42 444.781C1126.91 441.601 1125.68 439.469 1123.72 438.382C1121.76 437.296 1119.6 436.941 1117.25 437.319C1114.22 437.804 1112.02 439.096 1110.65 441.196C1109.27 443.276 1108.81 445.71 1109.26 448.496L1113.75 476.548L1107.02 477.626L1102.29 448.116C1101.9 445.666 1100.79 443.821 1098.96 442.579C1097.13 441.319 1094.96 440.89 1092.45 441.291C1090.73 441.567 1089.19 442.283 1087.85 443.439C1086.52 444.592 1085.52 446.055 1084.87 447.829C1084.23 449.581 1084.08 451.514 1084.41 453.627L1088.73 480.556L1082.11 481.617ZM1150.76 470.618L1143.86 427.531L1150.48 426.47L1157.38 469.557L1150.76 470.618ZM1146.08 419.81C1144.79 420.017 1143.6 419.756 1142.53 419.027C1141.47 418.294 1140.84 417.311 1140.65 416.077C1140.45 414.843 1140.74 413.713 1141.51 412.687C1142.31 411.658 1143.35 411.04 1144.64 410.834C1145.93 410.627 1147.1 410.89 1148.16 411.622C1149.24 412.351 1149.87 413.333 1150.07 414.567C1150.27 415.801 1149.97 416.933 1149.18 417.961C1148.4 418.987 1147.37 419.603 1146.08 419.81ZM1194.67 429.287L1189 431.923C1188.46 430.992 1187.76 430.117 1186.88 429.299C1186.01 428.459 1184.92 427.83 1183.58 427.41C1182.25 426.991 1180.62 426.935 1178.69 427.244C1176.06 427.666 1173.96 428.626 1172.39 430.123C1170.85 431.599 1170.22 433.262 1170.52 435.114C1170.78 436.759 1171.59 437.963 1172.94 438.725C1174.29 439.487 1176.28 439.983 1178.93 440.211L1185.58 440.757C1189.58 441.075 1192.68 442.046 1194.88 443.669C1197.07 445.274 1198.41 447.582 1198.89 450.593C1199.29 453.061 1198.93 455.382 1197.82 457.555C1196.73 459.724 1195.01 461.572 1192.67 463.099C1190.32 464.625 1187.48 465.657 1184.13 466.193C1179.73 466.897 1175.94 466.526 1172.76 465.08C1169.57 463.634 1167.3 461.14 1165.95 457.597L1171.98 455.019C1172.95 457.242 1174.36 458.8 1176.21 459.693C1178.08 460.583 1180.37 460.811 1183.08 460.376C1186.17 459.882 1188.51 458.835 1190.12 457.235C1191.74 455.614 1192.4 453.877 1192.1 452.026C1191.86 450.53 1191.14 449.361 1189.93 448.519C1188.72 447.658 1186.98 447.149 1184.73 446.992L1177.28 446.459C1173.19 446.156 1170.06 445.171 1167.89 443.504C1165.74 441.816 1164.43 439.485 1163.95 436.511C1163.56 434.08 1163.9 431.82 1164.96 429.731C1166.05 427.639 1167.69 425.87 1169.9 424.424C1172.12 422.974 1174.75 422.007 1177.78 421.522C1182.04 420.838 1185.54 421.237 1188.27 422.718C1191.02 424.195 1193.15 426.385 1194.67 429.287ZM1222.62 414.913L1223.51 420.524L1201.19 424.101L1200.29 418.491L1222.62 414.913ZM1205.14 407.125L1211.76 406.064L1218.34 447.132C1218.64 449.002 1219.14 450.361 1219.83 451.209C1220.54 452.035 1221.34 452.539 1222.26 452.719C1223.18 452.877 1224.13 452.879 1225.11 452.723C1225.83 452.606 1226.43 452.473 1226.88 452.323C1227.33 452.155 1227.7 452.02 1227.97 451.919L1230.27 457.65C1229.85 457.89 1229.25 458.159 1228.47 458.456C1227.7 458.772 1226.69 459.029 1225.46 459.226C1223.59 459.526 1221.69 459.417 1219.77 458.901C1217.86 458.381 1216.19 457.393 1214.74 455.936C1213.32 454.476 1212.41 452.493 1212.01 449.988L1205.14 407.125ZM1239.48 456.405L1232.57 413.318L1238.97 412.293L1240.01 418.801L1240.46 418.729C1240.9 416.471 1242.05 414.514 1243.89 412.857C1245.74 411.199 1247.95 410.164 1250.53 409.75C1251.02 409.672 1251.63 409.584 1252.36 409.486C1253.09 409.388 1253.65 409.328 1254.03 409.305L1255.11 416.038C1254.87 416.017 1254.34 416.016 1253.52 416.032C1252.72 416.027 1251.87 416.095 1250.99 416.236C1248.9 416.572 1247.1 417.311 1245.6 418.453C1244.11 419.574 1243.01 420.978 1242.3 422.664C1241.61 424.329 1241.42 426.133 1241.73 428.078L1246.1 455.344L1239.48 456.405ZM1277.03 466.96C1275.91 467.14 1274.89 467.207 1273.98 467.161C1273.08 467.133 1272.44 467.062 1272.08 466.948L1272.83 460.844C1274.5 460.997 1275.95 460.919 1277.16 460.609C1278.38 460.299 1279.39 459.572 1280.18 458.428C1281 457.3 1281.63 455.578 1282.09 453.261L1282.78 449.697L1259.91 408.938L1267.09 407.788L1284.49 440.217L1284.93 440.145L1291.33 403.905L1298.51 402.754L1288.13 455.055C1287.66 457.412 1286.94 459.417 1285.96 461.071C1284.98 462.743 1283.74 464.063 1282.25 465.032C1280.77 465.997 1279.03 466.64 1277.03 466.96ZM1037.1 587.065L1027.9 529.616L1047.31 526.506C1051.8 525.786 1055.6 525.963 1058.73 527.035C1061.85 528.088 1064.32 529.832 1066.13 532.266C1067.94 534.7 1069.11 537.609 1069.65 540.994C1070.2 544.379 1069.99 547.491 1069.02 550.331C1068.06 553.171 1066.26 555.568 1063.64 557.522C1061.02 559.458 1057.48 560.783 1053.03 561.496L1037.32 564.012L1036.31 557.729L1051.8 555.248C1054.86 554.757 1057.26 553.912 1058.99 552.715C1060.73 551.515 1061.89 550.025 1062.47 548.244C1063.07 546.442 1063.18 544.391 1062.81 542.09C1062.44 539.79 1061.69 537.849 1060.55 536.266C1059.42 534.683 1057.83 533.576 1055.79 532.943C1053.75 532.292 1051.18 532.215 1048.07 532.713L1035.84 534.672L1044.06 585.95L1037.1 587.065ZM1060.01 556.925L1078.28 580.467L1070.2 581.762L1052.15 558.183L1060.01 556.925ZM1125.34 573.733C1121.57 574.338 1118.2 574.167 1115.25 573.221C1112.3 572.275 1109.89 570.714 1108.02 568.538C1106.16 566.362 1104.98 563.722 1104.48 560.618C1104.1 558.224 1104.26 556.021 1104.98 554.007C1105.71 551.972 1106.84 550.016 1108.38 548.139C1109.94 546.24 1111.77 544.298 1113.86 542.312L1121.18 534.811C1122.63 533.484 1123.75 532.135 1124.53 530.764C1125.33 529.389 1125.57 527.72 1125.25 525.757C1125.02 524.298 1124.15 522.99 1122.64 521.831C1121.15 520.67 1119.36 520.255 1117.29 520.588C1115.83 520.821 1114.6 521.402 1113.6 522.33C1112.61 523.236 1111.89 524.311 1111.44 525.553C1111 526.774 1110.88 527.983 1111.07 529.18C1111.29 530.526 1111.87 531.833 1112.82 533.1C1113.79 534.345 1114.96 535.597 1116.33 536.854C1117.71 538.089 1119.14 539.356 1120.62 540.655L1152.15 568.633L1144.18 569.909L1118.21 547.141C1115.8 545.033 1113.61 543.12 1111.65 541.402C1109.68 539.683 1108.06 537.938 1106.78 536.168C1105.5 534.398 1104.68 532.39 1104.32 530.146C1103.91 527.565 1104.11 525.211 1104.94 523.084C1105.79 520.934 1107.16 519.151 1109.06 517.734C1110.98 516.295 1113.34 515.351 1116.15 514.901C1119.03 514.44 1121.6 514.604 1123.85 515.393C1126.1 516.164 1127.94 517.376 1129.35 519.029C1130.77 520.663 1131.64 522.546 1131.98 524.678C1132.42 527.427 1132.12 529.921 1131.08 532.159C1130.04 534.398 1128.48 536.575 1126.4 538.692L1116.33 549.053C1114.05 551.374 1112.6 553.506 1111.97 555.448C1111.34 557.39 1111.09 558.754 1111.22 559.539C1111.5 561.334 1112.24 562.933 1113.42 564.336C1114.61 565.738 1116.12 566.78 1117.98 567.461C1119.83 568.142 1121.9 568.3 1124.18 567.934C1126.35 567.587 1128.39 566.79 1130.3 565.544C1132.21 564.279 1133.86 562.635 1135.24 560.61C1136.64 558.583 1137.63 556.257 1138.21 553.632C1138.8 551.005 1138.85 548.149 1138.36 545.063L1144.75 544.038C1145.36 547.853 1145.42 551.037 1144.93 553.591C1144.44 556.144 1143.75 558.191 1142.87 559.733C1141.98 561.275 1141.26 562.437 1140.69 563.218C1140.51 563.534 1140.35 563.848 1140.21 564.158C1140.07 564.469 1139.91 564.782 1139.73 565.099C1138.21 567.471 1136.12 569.398 1133.46 570.879C1130.8 572.341 1128.09 573.292 1125.34 573.733ZM1200.32 560.915L1182.59 563.756L1173.39 506.307L1191.9 503.34C1197.47 502.448 1202.42 502.834 1206.76 504.499C1211.09 506.145 1214.65 508.94 1217.45 512.884C1220.25 516.809 1222.12 521.745 1223.08 527.692C1224.03 533.677 1223.79 539 1222.35 543.661C1220.91 548.304 1218.34 552.111 1214.63 555.083C1210.92 558.037 1206.15 559.981 1200.32 560.915ZM1188.56 556.47L1198.88 554.816C1203.63 554.055 1207.42 552.508 1210.25 550.175C1213.08 547.842 1214.99 544.86 1215.98 541.23C1216.97 537.599 1217.09 533.446 1216.34 528.771C1215.6 524.133 1214.2 520.262 1212.15 517.157C1210.1 514.034 1207.42 511.815 1204.12 510.502C1200.82 509.171 1196.93 508.865 1192.44 509.584L1181.33 511.363L1188.56 556.47Z" fill="white"/>
</g>
<defs>
<clipPath id="clip0_1047_692">
<rect width="1440" height="1024" fill="white"/>
</clipPath>
</defs>
</svg>
